<mxfile host="app.diagrams.net" modified="2023-03-14T11:14:42.200Z" agent="5.0 (Macintosh; Intel Mac OS X 10_15_7) AppleWebKit/537.36 (KHTML, like Gecko) Chrome/111.0.0.0 Safari/537.36" etag="qLT88qRfvqUfMQe9mNcc" version="21.0.6" type="github">
  <diagram name="Page-1" id="p-_drU0VPDCKU8uFeZcP">
    <mxGraphModel dx="2074" dy="1071" grid="1" gridSize="10" guides="1" tooltips="1" connect="1" arrows="1" fold="1" page="1" pageScale="1" pageWidth="1169" pageHeight="827" math="0" shadow="0">
      <root>
        <mxCell id="0" />
        <mxCell id="1" parent="0" />
        <mxCell id="Q-FP_CODCPaTkF4lISSn-7" value="DATABASE" style="shape=image;verticalLabelPosition=bottom;labelBackgroundColor=#ffffff;verticalAlign=top;aspect=fixed;imageAspect=0;image=data:image/svg+xml,PHN2ZyB4bWxuczpkYz0iaHR0cDovL3B1cmwub3JnL2RjL2VsZW1lbnRzLzEuMS8iIHhtbG5zOmNjPSJodHRwOi8vY3JlYXRpdmVjb21tb25zLm9yZy9ucyMiIHhtbG5zOnJkZj0iaHR0cDovL3d3dy53My5vcmcvMTk5OS8wMi8yMi1yZGYtc3ludGF4LW5zIyIgeG1sbnM6c3ZnPSJodHRwOi8vd3d3LnczLm9yZy8yMDAwL3N2ZyIgeG1sbnM9Imh0dHA6Ly93d3cudzMub3JnLzIwMDAvc3ZnIiB4bWxuczpzb2RpcG9kaT0iaHR0cDovL3NvZGlwb2RpLnNvdXJjZWZvcmdlLm5ldC9EVEQvc29kaXBvZGktMC5kdGQiIHhtbG5zOmlua3NjYXBlPSJodHRwOi8vd3d3Lmlua3NjYXBlLm9yZy9uYW1lc3BhY2VzL2lua3NjYXBlIiB2ZXJzaW9uPSIxLjEiIGlkPSJzdmcyNjM3MTQiIGlua3NjYXBlOnZlcnNpb249IjAuOTIuMyAoMjQwNTU0NiwgMjAxOC0wMy0xMSkiIHNvZGlwb2RpOmRvY25hbWU9InNxbF9zZXJ2ZXIuc3ZnIiB4PSIwcHgiIHk9IjBweCIgdmlld0JveD0iMCAwIDQ4LjQxIDY5Ljc1IiBzdHlsZT0iZW5hYmxlLWJhY2tncm91bmQ6bmV3IDAgMCA0OC40MSA2OS43NTsiIHhtbDpzcGFjZT0icHJlc2VydmUiPjxtZXRhZGF0YSBpZD0ibWV0YWRhdGExNDM4OTgiPjxyZGY6UkRGPjxjYzpXb3JrIHJkZjphYm91dD0iIj48ZGM6Zm9ybWF0PmltYWdlL3N2Zyt4bWw8L2RjOmZvcm1hdD48ZGM6dHlwZSByZGY6cmVzb3VyY2U9Imh0dHA6Ly9wdXJsLm9yZy9kYy9kY21pdHlwZS9TdGlsbEltYWdlIi8+PGRjOnRpdGxlLz48L2NjOldvcms+PC9yZGY6UkRGPjwvbWV0YWRhdGE+PGRlZnMgaWQ9ImRlZnMxNDM4OTYiPiYjeGE7CSYjeGE7CSYjeGE7JiN4YTsJCSYjeGE7CQkmI3hhOwkJJiN4YTsJJiN4YTsJCQkmI3hhOwkJCSYjeGE7CQkJJiN4YTsJCQkmI3hhOwkJCSYjeGE7CQkJJiN4YTsJCQkmI3hhOwkJCSYjeGE7CQkJJiN4YTsJCQkmI3hhOwkJJiN4YTsJCQkmI3hhOwkJCSYjeGE7CQkJJiN4YTsJCSYjeGE7CQkJCSYjeGE7CQkJCSYjeGE7CQkJCQkmI3hhOwkJCSYjeGE7CQkJCSYjeGE7CQkJCSYjeGE7CQkJCSYjeGE7CQkJCSYjeGE7CQkJCSYjeGE7CQkJCSYjeGE7CQkJJiN4YTsJCQkJJiN4YTsJCQkJJiN4YTsJCQkJJiN4YTsJCQkmI3hhOwkJCQkmI3hhOwkJCQkmI3hhOwkJCQkmI3hhOwkJCSYjeGE7CQkJCSYjeGE7CQkJCSYjeGE7CQkJCSYjeGE7CQkJJiN4YTsJCQkJJiN4YTsJCQkJJiN4YTsJCQkJJiN4YTsJCQkmI3hhOwkJCQkmI3hhOwkJCQkmI3hhOwkJCQkmI3hhOwkJCSYjeGE7CQkJCSYjeGE7CQkJCSYjeGE7CQkJCSYjeGE7CQkJJiN4YTsJCQkJJiN4YTsJCQkJJiN4YTsJCQkJJiN4YTsJCQkmI3hhOwkJCQkmI3hhOwkJCQkmI3hhOwkJCQkmI3hhOwkJCSYjeGE7CQkJCSYjeGE7CQkJCSYjeGE7CQkJCSYjeGE7CQkJJiN4YTsJCQkJCSYjeGE7CQkJCSYjeGE7CQkJCQkmI3hhOwkJCQkmI3hhOwkJCQkJJiN4YTsJCQkJJiN4YTsJCQkJCSYjeGE7CQkJCSYjeGE7CQkJCQkmI3hhOwkJCQkmI3hhOwkJCQkJJiN4YTsJCQkJJiN4YTsJCQkJCSYjeGE7CQkJCSYjeGE7CQkJCQkmI3hhOwkJCQkmI3hhOwkJCQkJJiN4YTsJCQkJJiN4YTsJCQkJCSYjeGE7CQkJCQkmI3hhOwkJCQkmI3hhOwkJCQkJJiN4YTsJCQkJCSYjeGE7CQkJCSYjeGE7CQkJCQkmI3hhOwkJCQkJJiN4YTsJCQkJJiN4YTsJCQkJCSYjeGE7CQkJCQkmI3hhOwkJCQkJJiN4YTsJCQkJCSYjeGE7CQkJCQkmI3hhOwkJCQkJJiN4YTsJCQkJCSYjeGE7CQkJCQkmI3hhOwkJCQkJJiN4YTsJCQkJCSYjeGE7CQkJCSYjeGE7CQkJCQkmI3hhOwkJCQkJJiN4YTsJCQkJCQkmI3hhOwkJCQkmI3hhOwkJCQkJCSYjeGE7CQkJCQkJJiN4YTsJCQkJCSYjeGE7CQkJCQkJJiN4YTsJCQkJCQkmI3hhOwkJCQkJJiN4YTsJCQkJCQkmI3hhOwkJCQkJCSYjeGE7CQkJCQkmI3hhOwkJCQkJCSYjeGE7CQkJCQkJJiN4YTsJCQkJCSYjeGE7CQkJCQkJJiN4YTsJCQkJCQkmI3hhOwkJCQkJJiN4YTsJCQkJCQkmI3hhOwkJCQkJCSYjeGE7CQkJCQkmI3hhOwkJCQkJCSYjeGE7CQkJCQkJJiN4YTsJCQkJCSYjeGE7CQkJCQkJJiN4YTsJCQkJCQkmI3hhOwkJCQkJJiN4YTsJCQkJCQkmI3hhOwkJCQkJCSYjeGE7CQkJCQkmI3hhOwkJCQkJCSYjeGE7CQkJCQkmI3hhOwkJCQkJCSYjeGE7CQkJCQkmI3hhOwkJCQkJCSYjeGE7CQkJCQkmI3hhOwkJCQkJCSYjeGE7CQkJCQkmI3hhOwkJCQkJCSYjeGE7CQkJCQkmI3hhOwkJCQkJCSYjeGE7CQkJCQkmI3hhOwkJCQkJCSYjeGE7CQkJCQkmI3hhOwkJCQkJCSYjeGE7CQkJCQk8L2RlZnM+JiN4YTs8ZmlsdGVyIGlkPSJmaWx0ZXJfMiI+JiN4YTsJPGZlR2F1c3NpYW5CbHVyIGlkPSJmZUdhdXNzaWFuQmx1cjI2MzU0OSIgc3RkRGV2aWF0aW9uPSIyIi8+JiN4YTs8L2ZpbHRlcj4mI3hhOzxzb2RpcG9kaTpuYW1lZHZpZXcgYm9yZGVyY29sb3I9IiM2NjY2NjYiIGJvcmRlcm9wYWNpdHk9IjEiIGZpdC1tYXJnaW4tYm90dG9tPSIwIiBmaXQtbWFyZ2luLWxlZnQ9IjAiIGZpdC1tYXJnaW4tcmlnaHQ9IjAiIGZpdC1tYXJnaW4tdG9wPSIwIiBncmlkdG9sZXJhbmNlPSIxMCIgZ3VpZGV0b2xlcmFuY2U9IjEwIiBpZD0ibmFtZWR2aWV3MjYzNzE2IiBpbmtzY2FwZTpjdXJyZW50LWxheWVyPSJzdmcyNjM3MTQiIGlua3NjYXBlOmN4PSIyOC41NjA4NjUiIGlua3NjYXBlOmN5PSIxMy40NTY0MDciIGlua3NjYXBlOnBhZ2VvcGFjaXR5PSIwIiBpbmtzY2FwZTpwYWdlc2hhZG93PSIyIiBpbmtzY2FwZTp3aW5kb3ctaGVpZ2h0PSIxMDE3IiBpbmtzY2FwZTp3aW5kb3ctbWF4aW1pemVkPSIxIiBpbmtzY2FwZTp3aW5kb3ctd2lkdGg9IjE5MjAiIGlua3NjYXBlOndpbmRvdy14PSItOCIgaW5rc2NhcGU6d2luZG93LXk9Ii04IiBpbmtzY2FwZTp6b29tPSI1LjgzNjk3NDIiIG9iamVjdHRvbGVyYW5jZT0iMTAiIHBhZ2Vjb2xvcj0iI2ZmZmZmZiIgc2hvd2dyaWQ9ImZhbHNlIj4mI3hhOwk8L3NvZGlwb2RpOm5hbWVkdmlldz4mI3hhOzxyZWN0IGhlaWdodD0iNjguMjUiIHdpZHRoPSIzOS43NSIgc3R5bGU9ImZpbGw6I2ZmZmZmZjtzdHJva2U6IzU1NmE4YTtzdHJva2Utd2lkdGg6MS41O3N0cm9rZS1taXRlcmxpbWl0OjMiIHk9IjAuNzQ2NzAwMjkiIHg9IjAuNzQ5OTMxNTEiIGlkPSJyZWN0MjYzNTYzIi8+PHJlY3QgaWQ9InJlY3QyNjM1NzAiIHg9IjIwLjI0OTkzMSIgeT0iMS40OTY3MDA0IiBzdHlsZT0iZmlsbDojZTVlNWU1IiB3aWR0aD0iMTkuNSIgaGVpZ2h0PSI2Ni43NSIvPjxyZWN0IGlkPSJyZWN0MjYzNTc1IiB4PSIyLjI0OTkzMTYiIHk9IjE3Ljk5NjY5NiIgc3R5bGU9ImZpbGw6IzJiYzdmNCIgd2lkdGg9IjE4IiBoZWlnaHQ9IjIuMjUiLz48cmVjdCBpZD0icmVjdDI2MzU4MCIgeD0iMi4yNDk5MzE2IiB5PSI3LjQ5NjY5NjUiIHN0eWxlPSJmaWxsOm5vbmUiIHdpZHRoPSIyNyIgaGVpZ2h0PSIyLjI1Ii8+PHJlY3QgaWQ9InJlY3QyNjM1ODUiIHg9IjIuMjQ5OTMxNiIgeT0iNy40OTY2OTY1IiBzdHlsZT0iZmlsbDpub25lIiB3aWR0aD0iMjciIGhlaWdodD0iMi4yNSIvPjxyZWN0IGlkPSJyZWN0MjYzNTkwIiB4PSIyLjI0OTkzMTYiIHk9IjEyLjc0NjY5NiIgc3R5bGU9ImZpbGw6IzJiYzdmNCIgd2lkdGg9IjE4IiBoZWlnaHQ9IjIuMjUiLz48cmVjdCBpZD0icmVjdDI2MzU5NSIgeD0iMi4yNDk5MzE2IiB5PSI3LjQ5NjY5NjUiIHN0eWxlPSJmaWxsOiMyYmM3ZjQiIHdpZHRoPSIxOCIgaGVpZ2h0PSIyLjI1Ii8+PHJlY3QgaWQ9InJlY3QyNjM2MDAiIHg9IjIwLjI0OTkzMSIgeT0iMTcuOTk2Njk2IiBzdHlsZT0iZmlsbDojNTU2YThhIiB3aWR0aD0iMTkuNSIgaGVpZ2h0PSIyLjI1Ii8+PHJlY3QgaWQ9InJlY3QyNjM2MDUiIHg9IjIwLjI0OTkzMSIgeT0iMTIuNzQ2Njk2IiBzdHlsZT0iZmlsbDojNTU2YThhIiB3aWR0aD0iMTkuNSIgaGVpZ2h0PSIyLjI1Ii8+PHJlY3QgaWQ9InJlY3QyNjM2MTAiIHg9IjIwLjI0OTkzMSIgeT0iNy40OTY2OTY1IiBzdHlsZT0iZmlsbDojNTU2YThhIiB3aWR0aD0iMTkuNSIgaGVpZ2h0PSIyLjI1Ii8+PHJlY3QgaGVpZ2h0PSIyLjI1IiB3aWR0aD0iMi4yNSIgc3R5bGU9ImZpbGw6IzU1NmE4YSIgeT0iNy40OTY2OTY1IiB4PSIxLjQ5OTkzMTUiIGlkPSJyZWN0MjYzNjE2Ii8+PHJlY3QgaGVpZ2h0PSIyLjI1IiB3aWR0aD0iMi4yNSIgc3R5bGU9ImZpbGw6IzU1NmE4YSIgeT0iMTIuNzQ2Njk2IiB4PSIxLjQ5OTkzMTUiIGlkPSJyZWN0MjYzNjIxIi8+PHJlY3QgaGVpZ2h0PSIyLjI1IiB3aWR0aD0iMi4yNSIgc3R5bGU9ImZpbGw6IzU1NmE4YSIgeT0iMTcuOTk2Njk2IiB4PSIxLjQ5OTkzMTUiIGlkPSJyZWN0MjYzNjI2Ii8+PHBhdGggaWQ9InBhdGgyNjM2MzIiIGlua3NjYXBlOmNvbm5lY3Rvci1jdXJ2YXR1cmU9IjAiIHN0eWxlPSJmaWxsOiNmZmZmZmY7c3Ryb2tlOiMyMDc1Yjg7c3Ryb2tlLXdpZHRoOjEuNTtzdHJva2UtbWl0ZXJsaW1pdDozIiBkPSJtIDIyLjcxODIzMiw2OS4wMDQwOTkgLTguMjcsLTE0LjIzIDguMjcsLTE0LjI0IGggMTYuNTUgbCA4LjI3LDE0LjI0IC04LjI3LDE0LjIzIHoiLz48cGF0aCBpZD0icGF0aDI2MzY0MyIgaW5rc2NhcGU6Y29ubmVjdG9yLWN1cnZhdHVyZT0iMCIgc3R5bGU9ImZpbGw6IzAwNzJjNiIgZD0ibSAyMi4zODI0MzIsNDYuMjQ5OTY5IHYgMTYuNDQgYyAwLDEuNzEgMy44MiwzLjA5IDguNTMsMy4wOSB2IC0xOS41MyB6Ii8+PHBhdGggaWQ9InBhdGgyNjM2NTEiIGlua3NjYXBlOmNvbm5lY3Rvci1jdXJ2YXR1cmU9IjAiIHN0eWxlPSJmaWxsOiMwMDcyYzYiIGQ9Im0gMzAuNzk5MzIyLDY1Ljc3OTUxNCBoIDAuMTIgYyA0LjcxLDAgOC41MywtMS4zOCA4LjUzLC0zLjA5IHYgLTE2LjQ0IGggLTguNjUgeiIvPjxwYXRoIGlkPSJwYXRoMjYzNjU5IiBpbmtzY2FwZTpjb25uZWN0b3ItY3VydmF0dXJlPSIwIiBzdHlsZT0iZmlsbDojZmZmZmZmO2ZpbGwtb3BhY2l0eTowLjE1IiBkPSJtIDMwLjc5OTMyMiw2NS43Nzk1MTQgaCAwLjEyIGMgNC43MSwwIDguNTMsLTEuMzggOC41MywtMy4wOSB2IC0xNi40NCBoIC04LjY1IHoiLz48cGF0aCBpZD0icGF0aDI2MzY2NyIgaW5rc2NhcGU6Y29ubmVjdG9yLWN1cnZhdHVyZT0iMCIgc3R5bGU9ImZpbGw6I2ZmZmZmZiIgZD0ibSAzOS40NTI0MzIsNDYuMjQ3NzY5IGMgMCwxLjcxIC0zLjgyLDMuMDkgLTguNTQsMy4wOSAtNC43MSwwIC04LjUzLC0xLjM4IC04LjUzLC0zLjA5IDAsLTEuNyAzLjgyLC0zLjA5IDguNTMsLTMuMDkgNC43MiwwIDguNTQsMS4zOSA4LjU0LDMuMDkgeiIvPjxwYXRoIGlkPSJwYXRoMjYzNjc1IiBpbmtzY2FwZTpjb25uZWN0b3ItY3VydmF0dXJlPSIwIiBzdHlsZT0iZmlsbDojN2ZiYTAwIiBkPSJtIDM3LjcwNjczMiw0Ni4wNjg0NjkgYyAwLDEuMTMgLTMuMDQsMi4wNCAtNi43OSwyLjA0IC0zLjc1LDAgLTYuNzksLTAuOTEgLTYuNzksLTIuMDQgMCwtMS4xMiAzLjA0LC0yLjA0IDYuNzksLTIuMDQgMy43NSwwIDYuNzksMC45MiA2Ljc5LDIuMDQgeiIvPjxwYXRoIGlkPSJwYXRoMjYzNjgzIiBpbmtzY2FwZTpjb25uZWN0b3ItY3VydmF0dXJlPSIwIiBzdHlsZT0iZmlsbDojYjhkNDMyIiBkPSJtIDM2LjI4NzE4Miw0Ny4zMTUyNjkgYyAwLjg4LC0wLjM0IDEuNDIsLTAuNzcgMS40MiwtMS4yNCAwLC0xLjEzIC0zLjA0LC0yLjA0IC02Ljc5LC0yLjA0IC0zLjc1LDAgLTYuNzksMC45MSAtNi43OSwyLjA0IDAsMC40NyAwLjUzLDAuOSAxLjQyLDEuMjQgMS4yNCwtMC40OCAzLjE4LC0wLjc5IDUuMzcsLTAuNzkgMi4xOSwwIDQuMTIsMC4zMSA1LjM3LDAuNzkgeiIvPjxwYXRoIGlkPSJwYXRoMjYzNjkxIiBpbmtzY2FwZTpjb25uZWN0b3ItY3VydmF0dXJlPSIwIiBzdHlsZT0iZmlsbDojZmZmZmZmIiBkPSJtIDI4LjIwODE0Miw1Ny42Njc2NDkgYyAwLDAuNTEgLTAuMTksMC45IC0wLjU2LDEuMTggLTAuMzcsMC4yOCAtMC44OCwwLjQyIC0xLjUzLDAuNDIgLTAuNTYsMCAtMS4wMiwtMC4xIC0xLjQsLTAuMyB2IC0xLjIgYyAwLjQzLDAuMzcgMC45MSwwLjU1IDEuNDMsMC41NSAwLjI1LDAgMC40NCwtMC4wNSAwLjU4LC0wLjE1IDAuMTMsLTAuMSAwLjIsLTAuMjMgMC4yLC0wLjQgMCwtMC4xNiAtMC4wNiwtMC4zIC0wLjIsLTAuNDIgLTAuMTMsLTAuMTIgLTAuMzksLTAuMjggLTAuOCwtMC40NyAtMC44MiwtMC4zOCAtMS4yMywtMC45MSAtMS4yMywtMS41OCAwLC0wLjQ4IDAuMTgsLTAuODcgMC41NCwtMS4xNiAwLjM2LC0wLjI5IDAuODMsLTAuNDQgMS40MiwtMC40NCAwLjUzLDAgMC45NywwLjA3IDEuMzEsMC4yMSB2IDEuMTIgYyAtMC4zNiwtMC4yNSAtMC43NywtMC4zNyAtMS4yNCwtMC4zNyAtMC4yMywwIC0wLjQxLDAuMDUgLTAuNTUsMC4xNSAtMC4xNCwwLjA5IC0wLjIsMC4yMyAtMC4yLDAuMzkgMCwwLjE3IDAuMDUsMC4zMSAwLjE2LDAuNDIgMC4xMSwwLjExIDAuMzMsMC4yNCAwLjY3LDAuNCAwLjUsMC4yNCAwLjg2LDAuNDggMS4wOCwwLjczIDAuMjEsMC4yNCAwLjMyLDAuNTUgMC4zMiwwLjkyIHoiLz48cGF0aCBpZD0icGF0aDI2MzY5OSIgaW5rc2NhcGU6Y29ubmVjdG9yLWN1cnZhdHVyZT0iMCIgc3R5bGU9ImZpbGw6I2ZmZmZmZiIgZD0ibSAzNC4wMDM1NTIsNTYuNDQ4Mzg5IGMgMCwwLjYzIC0wLjE1LDEuMTggLTAuNDQsMS42NSAtMC4yOCwwLjQ2IC0wLjY5LDAuNzkgLTEuMjEsMC45OCBsIDEuNTYsMS40NCBoIC0xLjU4IGwgLTEuMTEsLTEuMjUgYyAtMC40OCwtMC4wMSAtMC45MSwtMC4xNCAtMS4zLC0wLjM4IC0wLjM4LC0wLjIzIC0wLjY4LC0wLjU1IC0wLjg5LC0wLjk2IC0wLjIxLC0wLjQxIC0wLjMxLC0wLjg3IC0wLjMxLC0xLjM3IDAsLTAuNTYgMC4xMSwtMS4wNiAwLjM0LC0xLjUgMC4yMywtMC40MyAwLjU0LC0wLjc3IDAuOTYsLTEgMC40MSwtMC4yNCAwLjg4LC0wLjM2IDEuNDEsLTAuMzYgMC40OSwwIDAuOTQsMC4xMiAxLjMzLDAuMzQgMC4zOSwwLjIzIDAuNjksMC41NiAwLjkxLDAuOTggMC4yMiwwLjQyIDAuMzMsMC45IDAuMzMsMS40MyB6IG0gLTEuMjgsMC4wNyBjIDAsLTAuNTUgLTAuMTIsLTAuOTggLTAuMzYsLTEuMyAtMC4yMywtMC4zMSAtMC41NiwtMC40NyAtMC45NywtMC40NyAtMC40MiwwIC0wLjc2LDAuMTYgLTEuMDEsMC40NyAtMC4yNiwwLjMyIC0wLjM4LDAuNzQgLTAuMzgsMS4yNyAwLDAuNTMgMC4xMiwwLjk1IDAuMzcsMS4yNiAwLjI1LDAuMzIgMC41OCwwLjQ3IDAuOTksMC40NyAwLjQxLDAgMC43NSwtMC4xNSAwLjk5LC0wLjQ1IDAuMjUsLTAuMzEgMC4zNywtMC43MiAwLjM3LC0xLjI1IHoiLz48cGF0aCBpZD0icGF0aDI2MzcwNyIgaW5rc2NhcGU6Y29ubmVjdG9yLWN1cnZhdHVyZT0iMCIgc3R5bGU9ImZpbGw6I2ZmZmZmZiIgZD0ibSAzOC4xMDA3MzIsNTkuMTczODU5IGggLTMuMjEgdiAtNS4zOCBoIDEuMjEgdiA0LjQgaCAyIHoiLz4mI3hhOzwvc3ZnPg==;" vertex="1" parent="1">
          <mxGeometry x="710" y="290" width="61.71" height="90" as="geometry" />
        </mxCell>
        <mxCell id="Q-FP_CODCPaTkF4lISSn-18" style="edgeStyle=orthogonalEdgeStyle;rounded=0;orthogonalLoop=1;jettySize=auto;html=1;exitX=0.5;exitY=0;exitDx=0;exitDy=0;entryX=0;entryY=0.5;entryDx=0;entryDy=0;" edge="1" parent="1" source="Q-FP_CODCPaTkF4lISSn-10" target="Q-FP_CODCPaTkF4lISSn-14">
          <mxGeometry relative="1" as="geometry">
            <mxPoint x="401" y="170" as="targetPoint" />
          </mxGeometry>
        </mxCell>
        <mxCell id="Q-FP_CODCPaTkF4lISSn-19" value="&amp;nbsp;AUTHENTICATION&amp;nbsp;" style="edgeLabel;html=1;align=center;verticalAlign=middle;resizable=0;points=[];" vertex="1" connectable="0" parent="Q-FP_CODCPaTkF4lISSn-18">
          <mxGeometry x="0.2077" relative="1" as="geometry">
            <mxPoint x="1" y="1" as="offset" />
          </mxGeometry>
        </mxCell>
        <mxCell id="Q-FP_CODCPaTkF4lISSn-20" style="edgeStyle=orthogonalEdgeStyle;rounded=0;orthogonalLoop=1;jettySize=auto;html=1;exitX=1;exitY=0.5;exitDx=0;exitDy=0;" edge="1" parent="1" source="Q-FP_CODCPaTkF4lISSn-10" target="Q-FP_CODCPaTkF4lISSn-17">
          <mxGeometry relative="1" as="geometry" />
        </mxCell>
        <mxCell id="Q-FP_CODCPaTkF4lISSn-10" value="APP (ANGULAR)" style="shape=image;verticalLabelPosition=bottom;labelBackgroundColor=#ffffff;verticalAlign=top;aspect=fixed;imageAspect=0;image=data:image/svg+xml,PHN2ZyB4bWxuczpjYz0iaHR0cDovL2NyZWF0aXZlY29tbW9ucy5vcmcvbnMjIiB4bWxuczpkYz0iaHR0cDovL3B1cmwub3JnL2RjL2VsZW1lbnRzLzEuMS8iIHhtbG5zOmlua3NjYXBlPSJodHRwOi8vd3d3Lmlua3NjYXBlLm9yZy9uYW1lc3BhY2VzL2lua3NjYXBlIiB4bWxuczpyZGY9Imh0dHA6Ly93d3cudzMub3JnLzE5OTkvMDIvMjItcmRmLXN5bnRheC1ucyMiIHhtbG5zOnNvZGlwb2RpPSJodHRwOi8vc29kaXBvZGkuc291cmNlZm9yZ2UubmV0L0RURC9zb2RpcG9kaS0wLmR0ZCIgeG1sbnM6c3ZnPSJodHRwOi8vd3d3LnczLm9yZy8yMDAwL3N2ZyIgeG1sbnM9Imh0dHA6Ly93d3cudzMub3JnLzIwMDAvc3ZnIiB4bWxuczp4bGluaz0iaHR0cDovL3d3dy53My5vcmcvMTk5OS94bGluayIgdmVyc2lvbj0iMS4xIiBpZD0ic3ZnNDI3ODYiIGlua3NjYXBlOnZlcnNpb249IjAuOTIuMyAoMjQwNTU0NiwgMjAxOC0wMy0xMSkiIHNvZGlwb2RpOmRvY25hbWU9ImJyb3dzZXIuc3ZnIiB4PSIwcHgiIHk9IjBweCIgdmlld0JveD0iMCAwIDk4LjQ2IDY3LjgyIiBzdHlsZT0iZW5hYmxlLWJhY2tncm91bmQ6bmV3IDAgMCA5OC40NiA2Ny44MjsiIHhtbDpzcGFjZT0icHJlc2VydmUiPiYjeGE7PHNvZGlwb2RpOm5hbWVkdmlldyBib3JkZXJjb2xvcj0iIzY2NjY2NiIgYm9yZGVyb3BhY2l0eT0iMSIgZml0LW1hcmdpbi1ib3R0b209IjAiIGZpdC1tYXJnaW4tbGVmdD0iMCIgZml0LW1hcmdpbi1yaWdodD0iMCIgZml0LW1hcmdpbi10b3A9IjAiIGdyaWR0b2xlcmFuY2U9IjEwIiBndWlkZXRvbGVyYW5jZT0iMTAiIGlkPSJuYW1lZHZpZXc0Mjc4OCIgaW5rc2NhcGU6Y3VycmVudC1sYXllcj0ic3ZnNDI3ODYiIGlua3NjYXBlOmN4PSI3MC40NzgyNTMiIGlua3NjYXBlOmN5PSIxNC43NzY5OTgiIGlua3NjYXBlOnBhZ2VvcGFjaXR5PSIwIiBpbmtzY2FwZTpwYWdlc2hhZG93PSIyIiBpbmtzY2FwZTp3aW5kb3ctaGVpZ2h0PSIxMDE3IiBpbmtzY2FwZTp3aW5kb3ctbWF4aW1pemVkPSIxIiBpbmtzY2FwZTp3aW5kb3ctd2lkdGg9IjE5MjAiIGlua3NjYXBlOndpbmRvdy14PSItOCIgaW5rc2NhcGU6d2luZG93LXk9Ii04IiBpbmtzY2FwZTp6b29tPSIzLjM4OTY3NzciIG9iamVjdHRvbGVyYW5jZT0iMTAiIHBhZ2Vjb2xvcj0iI2ZmZmZmZiIgc2hvd2dyaWQ9ImZhbHNlIj4mI3hhOwk8L3NvZGlwb2RpOm5hbWVkdmlldz4mI3hhOzxnIGlkPSJnNDI3ODQiPiYjeGE7CTx0aXRsZSBpZD0idGl0bGU0Mjc3NyI+UGFnZS0xPC90aXRsZT4mI3hhOwk8ZyBpZD0ic2hhcGUxOTkxLTEiPiYjeGE7CQk8dGl0bGUgaWQ9InRpdGxlNDI3NzkiPkJyb3dzZXI8L3RpdGxlPiYjeGE7CQk8cGF0aCBpZD0icGF0aDQyNzgxIiBpbmtzY2FwZTpjb25uZWN0b3ItY3VydmF0dXJlPSIwIiBzdHlsZT0iZmlsbDojM0Y1NzY1OyIgZD0iTTcuMDcsMTguNDFjLTAuNiwwLTEuMDksMC4zOC0xLjA5LDAuODV2NDMuOTYgICAgYzAsMC40NywwLjQ5LDAuODUsMS4wOSwwLjg1aDgzLjM4YzAuNjEsMCwxLjA5LTAuMzgsMS4wOS0wLjg1VjE5LjI2YzAtMC40Ny0wLjQ4LTAuODUtMS4wOS0wLjg1SDcuMDd6IE04OS4zNCwxMi44OSAgICBjLTAuODYsMC0xLjU3LDAuNTUtMS41NywxLjI1YzAsMC42OSwwLjcxLDEuMjQsMS41NywxLjI0YzAuODksMCwxLjYtMC41NSwxLjYtMS4yNEM5MC45NCwxMy40NCw5MC4yMywxMi44OSw4OS4zNCwxMi44OXogICAgIE03Ny43MywxMi44OWMtMC44NywwLTEuNTgsMC41NS0xLjU4LDEuMjVjMCwwLjY5LDAuNzEsMS4yNCwxLjU4LDEuMjRzMS41OC0wLjU1LDEuNTgtMS4yNEM3OS4zMSwxMy40NCw3OC42LDEyLjg5LDc3LjczLDEyLjg5eiAgICAgTTMyLjk1LDcuOTFjLTIuNTMsMC00LjU5LDEuNjEtNC41OSwzLjZzMi4wNiwzLjU5LDQuNTksMy41OWgzMi41N2MyLjU0LDAsNC41OC0xLjYsNC41OC0zLjU5cy0yLjA0LTMuNi00LjU4LTMuNkwzMi45NSw3LjkxeiAgICAgTTg5LjM0LDMuNzdjLTAuODYsMC0xLjU3LDAuNTYtMS41NywxLjIzYzAsMC42OSwwLjcxLDEuMjUsMS41NywxLjI1YzAuODksMCwxLjYtMC41NiwxLjYtMS4yNUM5MC45NCw0LjMzLDkwLjIzLDMuNzcsODkuMzQsMy43NyAgICB6IE04My41NCwzLjc3Yy0wLjc3LDAtMS4zOSwwLjQ5LTEuMzksMS4wN3YzLjY0aC00LjYxYy0wLjc4LDAtMS4zOSwwLjQ4LTEuMzksMS4wOWMwLDAuNiwwLjYxLDEuMDksMS4zOSwxLjA5aDQuNjF2My42MyAgICBjMCwwLjU5LDAuNjIsMS4wOSwxLjM5LDEuMDljMC43NiwwLDEuMzgtMC41LDEuMzgtMS4wOWMwLTEuMjEsMC0yLjQyLDAtMy42M2g0LjYzYzAuNzYsMCwxLjM5LTAuNDksMS4zOS0xLjA5ICAgIGMwLTAuNjEtMC42My0xLjA5LTEuMzktMS4wOWMtMS41NCwwLTMuMDgsMC00LjYzLDBWNC44NEM4NC45Miw0LjI2LDg0LjMsMy43Nyw4My41NCwzLjc3eiBNNzcuNzMsMy43NyAgICBjLTAuODcsMC0xLjU4LDAuNTYtMS41OCwxLjIzYzAsMC42OSwwLjcxLDEuMjUsMS41OCwxLjI1Uzc5LjMxLDUuNjksNzkuMzEsNUM3OS4zMSw0LjMzLDc4LjYsMy43Nyw3Ny43MywzLjc3eiBNMy43MywwaDkxLjAyICAgIGMyLjA1LDAsMy43MSwxLjMxLDMuNzEsMi45MnY2MmMwLDEuNjEtMS42NiwyLjktMy43MSwyLjlIMy43M2MtMi4wNSwwLTMuNzMtMS4yOS0zLjczLTIuOXYtNjJDMCwxLjMxLDEuNjgsMCwzLjczLDB6Ii8+JiN4YTsJPC9nPiYjeGE7PC9nPiYjeGE7PC9zdmc+;" vertex="1" parent="1">
          <mxGeometry x="70" y="347.5" width="98" height="68" as="geometry" />
        </mxCell>
        <mxCell id="Q-FP_CODCPaTkF4lISSn-14" value="Identity Access Manager Service" style="shape=image;verticalLabelPosition=bottom;labelBackgroundColor=#ffffff;verticalAlign=top;aspect=fixed;imageAspect=0;image=data:image/svg+xml,PHN2ZyB4bWxuczpjYz0iaHR0cDovL2NyZWF0aXZlY29tbW9ucy5vcmcvbnMjIiB4bWxuczpkYz0iaHR0cDovL3B1cmwub3JnL2RjL2VsZW1lbnRzLzEuMS8iIHhtbG5zOmlua3NjYXBlPSJodHRwOi8vd3d3Lmlua3NjYXBlLm9yZy9uYW1lc3BhY2VzL2lua3NjYXBlIiB4bWxuczpyZGY9Imh0dHA6Ly93d3cudzMub3JnLzE5OTkvMDIvMjItcmRmLXN5bnRheC1ucyMiIHhtbG5zOnNvZGlwb2RpPSJodHRwOi8vc29kaXBvZGkuc291cmNlZm9yZ2UubmV0L0RURC9zb2RpcG9kaS0wLmR0ZCIgeG1sbnM6c3ZnPSJodHRwOi8vd3d3LnczLm9yZy8yMDAwL3N2ZyIgeG1sbnM9Imh0dHA6Ly93d3cudzMub3JnLzIwMDAvc3ZnIiB4bWxuczp4bGluaz0iaHR0cDovL3d3dy53My5vcmcvMTk5OS94bGluayIgdmVyc2lvbj0iMS4xIiBpZD0ic3ZnMTE5NDciIGlua3NjYXBlOnZlcnNpb249IjAuOTIuMyAoMjQwNTU0NiwgMjAxOC0wMy0xMSkiIHNvZGlwb2RpOmRvY25hbWU9IndlYl9zZXJ2aWNlLnN2ZyIgeD0iMHB4IiB5PSIwcHgiIHZpZXdCb3g9IjAgMCAzOC45NCA0MC4yOSIgc3R5bGU9ImVuYWJsZS1iYWNrZ3JvdW5kOm5ldyAwIDAgMzguOTQgNDAuMjk7IiB4bWw6c3BhY2U9InByZXNlcnZlIj4mI3hhOzxzb2RpcG9kaTpuYW1lZHZpZXcgYm9yZGVyY29sb3I9IiM2NjY2NjYiIGJvcmRlcm9wYWNpdHk9IjEiIGZpdC1tYXJnaW4tYm90dG9tPSIwIiBmaXQtbWFyZ2luLWxlZnQ9IjAiIGZpdC1tYXJnaW4tcmlnaHQ9IjAiIGZpdC1tYXJnaW4tdG9wPSIwIiBncmlkdG9sZXJhbmNlPSIxMCIgZ3VpZGV0b2xlcmFuY2U9IjEwIiBpZD0ibmFtZWR2aWV3MTE5NDkiIGlua3NjYXBlOmN1cnJlbnQtbGF5ZXI9InN2ZzExOTQ3IiBpbmtzY2FwZTpjeD0iMTUuODMwODM5IiBpbmtzY2FwZTpjeT0iMTcuOTAzNzI4IiBpbmtzY2FwZTpwYWdlb3BhY2l0eT0iMCIgaW5rc2NhcGU6cGFnZXNoYWRvdz0iMiIgaW5rc2NhcGU6d2luZG93LWhlaWdodD0iMTAxNyIgaW5rc2NhcGU6d2luZG93LW1heGltaXplZD0iMSIgaW5rc2NhcGU6d2luZG93LXdpZHRoPSIxOTIwIiBpbmtzY2FwZTp3aW5kb3cteD0iLTgiIGlua3NjYXBlOndpbmRvdy15PSItOCIgaW5rc2NhcGU6em9vbT0iNy43Nzk5Nzk5IiBvYmplY3R0b2xlcmFuY2U9IjEwIiBwYWdlY29sb3I9IiNmZmZmZmYiIHNob3dncmlkPSJmYWxzZSI+JiN4YTsJPC9zb2RpcG9kaTpuYW1lZHZpZXc+JiN4YTs8ZyBpZD0iZzExOTQ1IiB0cmFuc2Zvcm09InRyYW5zbGF0ZSgtMS4zMTI3MTA0LC0wLjc0Nzg2MzA5KSI+JiN4YTsJPHRpdGxlIGlkPSJ0aXRsZTExODc1Ij5QYWdlLTE8L3RpdGxlPiYjeGE7CTxnIGlkPSJncm91cDQzNjEtMSIgdHJhbnNmb3JtPSJ0cmFuc2xhdGUoMS41LC0xLjUpIj4mI3hhOwkJPHRpdGxlIGlkPSJ0aXRsZTExODc3Ij5XZWIgU2VydmljZTwvdGl0bGU+JiN4YTsJCTxnIGlkPSJzaGFwZTQzNjItMiIgdHJhbnNmb3JtPSJ0cmFuc2xhdGUoNS4zNzk3NCwtOS4wNzcxNykiPiYjeGE7CQkJPHRpdGxlIGlkPSJ0aXRsZTExODc5Ij5wYXRoOTYxMDwvdGl0bGU+JiN4YTsJCQkmI3hhOwkJCQk8cGF0aCBpZD0icGF0aDExODgxIiBpbmtzY2FwZTpjb25uZWN0b3ItY3VydmF0dXJlPSIwIiBzdHlsZT0iZmlsbDojRkZGRkZGO3N0cm9rZTojNTU2QThBO3N0cm9rZS13aWR0aDowLjc1O3N0cm9rZS1taXRlcmxpbWl0OjM7IiBkPSIgICAgIE0zMC4wOSwyOS4zM2MwLDkuNzMtNy45LDE3LjYyLTE3LjYzLDE3LjYycy0xNy42Mi03LjktMTcuNjItMTcuNjNjMC05LjczLDcuODktMTcuNjIsMTcuNjItMTcuNjIgICAgIEMyMi4xOSwxMS43MSwzMC4wOCwxOS42LDMwLjA5LDI5LjMzeiIvPiYjeGE7CQk8L2c+JiN4YTsJCTxnIGlkPSJzaGFwZTQzNjMtNCIgdHJhbnNmb3JtPSJ0cmFuc2xhdGUoMC4yMTc0OTIsLTMuOTE0OTMpIj4mI3hhOwkJCTx0aXRsZSBpZD0idGl0bGUxMTg4NCI+cGF0aDk2MTI8L3RpdGxlPiYjeGE7CQkJPHBhdGggaWQ9InBhdGgxMTg4NiIgaW5rc2NhcGU6Y29ubmVjdG9yLWN1cnZhdHVyZT0iMCIgc3R5bGU9ImZpbGw6I0FDRThGOTsiIGQ9Ik0zNS4yNSwyNC4xNmMwLDkuNzMtNy44OSwxNy42Mi0xNy42MywxNy42MiAgICAgUzAsMzMuODksMCwyNC4xNmwwLDBIMzUuMjV6Ii8+JiN4YTsJCTwvZz4mI3hhOwkJPGcgaWQ9InNoYXBlNDM2NC02IiB0cmFuc2Zvcm09InRyYW5zbGF0ZSgxLjM0MjQ5LC04LjgxMikiPiYjeGE7CQkJPHRpdGxlIGlkPSJ0aXRsZTExODg5Ij5wYXRoOTYxNDwvdGl0bGU+JiN4YTsJCQk8cGF0aCBpZD0icGF0aDExODkxIiBpbmtzY2FwZTpjb25uZWN0b3ItY3VydmF0dXJlPSIwIiBzdHlsZT0iZmlsbDojNTU2QThBOyIgZD0iTTE2LjUsMTIuNTZjOS4xMSwwLDE2LjUsNy4zOSwxNi41LDE2LjUgICAgIHMtNy4zOSwxNi41LTE2LjUsMTYuNVMwLDM4LjE3LDAsMjkuMDZjMCwwLDAsMCwwLDBDMCwxOS45NSw3LjM5LDEyLjU2LDE2LjUsMTIuNTZ6IE0xNi41LDExLjA2Yy05Ljk0LDAtMTgsOC4wNi0xOCwxOCAgICAgczguMDYsMTgsMTgsMThzMTgtOC4wNiwxOC0xOFMyNi40NCwxMS4wNiwxNi41LDExLjA2eiIvPiYjeGE7CQk8L2c+JiN4YTsJCTxnIGlkPSJncm91cDQzNjUtOCIgdHJhbnNmb3JtPSJ0cmFuc2xhdGUoMCwtMy41Mzk5MykiPiYjeGE7CQkJPHRpdGxlIGlkPSJ0aXRsZTExODk0Ij5nOTYyMDwvdGl0bGU+JiN4YTsJCQk8ZyBpZD0ic2hhcGU0MzY2LTkiIHRyYW5zZm9ybT0idHJhbnNsYXRlKDkuNTkyNDkpIj4mI3hhOwkJCQk8dGl0bGUgaWQ9InRpdGxlMTE4OTYiPnBhdGg5NjE2PC90aXRsZT4mI3hhOwkJCQk8cGF0aCBpZD0icGF0aDExODk4IiBpbmtzY2FwZTpjb25uZWN0b3ItY3VydmF0dXJlPSIwIiBzdHlsZT0iZmlsbDojNTU2QThBOyIgZD0iTTcuODcsNy40OWMzLDAsNi4zOCw3LjAxLDYuMzgsMTYuNCAgICAgIGMwLDkuMzgtMy4zOCwxNi40LTYuMzgsMTYuNFMxLjUsMzMuMjgsMS41LDIzLjg5QzEuNSwxNC41MSw0Ljg3LDcuNDksNy44Nyw3LjQ5eiBNNy44Nyw1Ljk5QzMuNTIsNS45OSwwLDE0LDAsMjMuODkgICAgICBjMCw5Ljg4LDMuNTIsMTcuOSw3Ljg3LDE3LjlzNy44OC04LjAxLDcuODgtMTcuOUMxNS43NSwxNC4wMSwxMi4yMiw1Ljk5LDcuODcsNS45OXoiLz4mI3hhOwkJCTwvZz4mI3hhOwkJCTxnIGlkPSJzaGFwZTQzNjctMTEiIHRyYW5zZm9ybT0idHJhbnNsYXRlKDAsLTE4KSI+JiN4YTsJCQkJPHRpdGxlIGlkPSJ0aXRsZTExOTAxIj5saW5lOTYxODwvdGl0bGU+JiN4YTsJCQkJJiN4YTsJCQkJCTxwYXRoIGlkPSJwYXRoMTE5MDMiIGlua3NjYXBlOmNvbm5lY3Rvci1jdXJ2YXR1cmU9IjAiIHN0eWxlPSJmaWxsOm5vbmU7c3Ryb2tlOiM1NTZBOEE7c3Ryb2tlLXdpZHRoOjEuNTtzdHJva2UtbWl0ZXJsaW1pdDozOyIgZD0iICAgICAgTTAsNDEuNzloMzUuMDkiLz4mI3hhOwkJCTwvZz4mI3hhOwkJPC9nPiYjeGE7CQk8ZyBpZD0ic2hhcGU0MzY4LTE0IiB0cmFuc2Zvcm09InRyYW5zbGF0ZSg0LjM0OTk5LC0zMC41Mzk5KSI+JiN4YTsJCQk8dGl0bGUgaWQ9InRpdGxlMTE5MDciPnBhdGg5NjIyPC90aXRsZT4mI3hhOwkJCTxwYXRoIGlkPSJwYXRoMTE5MDkiIGlua3NjYXBlOmNvbm5lY3Rvci1jdXJ2YXR1cmU9IjAiIHN0eWxlPSJmaWxsOm5vbmU7IiBkPSJNMCwzOS43NmMzLjI5LDEuMjgsOC4xMiwyLjAzLDEzLjQ5LDIuMDMgICAgIHMxMC4yLTAuNzUsMTMuNS0yLjAzSDB6Ii8+JiN4YTsJCQkmI3hhOwkJCQk8cGF0aCBpZD0icGF0aDExOTExIiBpbmtzY2FwZTpjb25uZWN0b3ItY3VydmF0dXJlPSIwIiBzdHlsZT0iZmlsbDpub25lO3N0cm9rZTojNTU2QThBO3N0cm9rZS13aWR0aDoxLjU7c3Ryb2tlLW1pdGVybGltaXQ6MzsiIGQ9IiAgICAgTTAsMzkuNzZjMy4yOSwxLjI4LDguMTIsMi4wMywxMy40OSwyLjAzczEwLjItMC43NSwxMy41LTIuMDMiLz4mI3hhOwkJPC9nPiYjeGE7CQk8ZyBpZD0ic2hhcGU0MzY5LTE3IiB0cmFuc2Zvcm09InRyYW5zbGF0ZSg0LjM0OTk5LC0xMC41MDc0KSI+JiN4YTsJCQk8dGl0bGUgaWQ9InRpdGxlMTE5MTQiPnBhdGg5NjI0PC90aXRsZT4mI3hhOwkJCTxwYXRoIGlkPSJwYXRoMTE5MTYiIGlua3NjYXBlOmNvbm5lY3Rvci1jdXJ2YXR1cmU9IjAiIHN0eWxlPSJmaWxsOm5vbmU7IiBkPSJNMCw0MS43OWMzLjI5LTEuMjgsOC4xMi0yLjAzLDEzLjQ5LTIuMDMgICAgIHMxMC4yLDAuNzUsMTMuNSwyLjAzSDB6Ii8+JiN4YTsJCQkmI3hhOwkJCQk8cGF0aCBpZD0icGF0aDExOTE4IiBpbmtzY2FwZTpjb25uZWN0b3ItY3VydmF0dXJlPSIwIiBzdHlsZT0iZmlsbDpub25lO3N0cm9rZTojNTU2QThBO3N0cm9rZS13aWR0aDoxLjU7c3Ryb2tlLW1pdGVybGltaXQ6MzsiIGQ9IiAgICAgTTAsNDEuNzljMy4yOS0xLjI4LDguMTItMi4wMywxMy40OS0yLjAzczEwLjIsMC43NSwxMy41LDIuMDMiLz4mI3hhOwkJPC9nPiYjeGE7CQk8ZyBpZD0iZ3JvdXA0MzcwLTIwIiB0cmFuc2Zvcm09InRyYW5zbGF0ZSgxNS42NjkzKSI+JiN4YTsJCQk8dGl0bGUgaWQ9InRpdGxlMTE5MjEiPkNvbmZpZ3VyYXRpb248L3RpdGxlPiYjeGE7CQkJPGcgaWQ9InNoYXBlNDM3MS0yMSI+JiN4YTsJCQkJPHRpdGxlIGlkPSJ0aXRsZTExOTIzIj5wYXRoMTk0NC4yNzM2NzwvdGl0bGU+JiN4YTsJCQkJPHBhdGggaWQ9InBhdGgxMTkyNSIgaW5rc2NhcGU6Y29ubmVjdG9yLWN1cnZhdHVyZT0iMCIgc3R5bGU9ImZpbGw6I0ZGRkZGRjsiIGQ9Ik0yMi4yNywyOS4wM2MwLTAuMTctMC4yOS0wLjUzLTAuODItMC41NyAgICAgIGwtMi4wNC0wLjEyYy0wLjQ2LDAuMDItMC44Ny0wLjI4LTAuOTgtMC43M2MwLDAuMDEtMC45My0xLjc0LTAuNC0yLjM3bDEuMDktMS40N2MwLjE3LTAuMzMsMC4xMi0wLjczLTAuMTEtMS4wMmwtMS4zLTEuMDkgICAgICBjLTAuMjQtMC4yLTAuNi0wLjE4LTAuODEsMC4wNmMtMC4wMSwwLjAxLTAuMDIsMC4wMi0wLjAyLDAuMDNjMCwwLDAsMCwwLDAuMDNsLTEuNDIsMS4yOWMtMC4zNCwwLjM5LTAuOTEsMC40OS0xLjM3LDAuMjYgICAgICBjLTAuMzUsMC0wLjY3LTAuMi0xLTAuMjJjLTAuNDQtMC4yMy0wLjc4LTAuNjMtMC45My0xLjFsLTAuMjMtMS44OGMtMC4wNy0wLjQtMC40MS0wLjctMC44MS0wLjcxbC0xLjU1LDAuMjUgICAgICBjLTAuMzYsMC4wMi0wLjY2LDAuMjktMC43MSwwLjY1bDAuMDYsMi4wMWMwLDAuNS0wLjA3LDEuMzUtMS42MSwxLjYyYzAsMC0xLjE0LDAuMi0xLjU0LTAuMDhsLTEuNi0xLjI5ICAgICAgYy0wLjI4LTAuMTQtMC42Mi0wLjA5LTAuODUsMC4xM0wzLjIsMjIuODVsLTAuOTcsMS4xNGMtMC4yLDAuMjUtMC4xNiwwLjYxLDAuMDksMC44YzAuMDEsMC4wMSwwLjAyLDAuMDIsMC4wMywwLjAzbDEuMjcsMS41OSAgICAgIGMwLjczLDAuNzIsMC4wNiwxLjg3LDAuMDQsMi4yMWMtMC4xMiwwLjUyLTAuNTUsMC45LTEuMDgsMC45NmwtMi4wMiwwLjI1QzAuMjQsMjkuOTcsMC4wMSwzMC4yOSwwLDMwLjY1bDAuMDYsMS43MiAgICAgIGMwLjE2LDAuMzEsMC40NiwwLjUzLDAuODEsMC41N2wyLjA0LDAuMTFjMC42NywwLjAzLDEuMTQsMC4yMSwxLjYsMS42MmMwLjE4LDAuMzQsMC4zLDAuNzEtMC4yNCwxLjM0bC0xLjExLDEuNjQgICAgICBjLTAuMTQsMC4yOS0wLjA5LDAuNjMsMC4xMiwwLjg2bDEuMjksMS4wN2MwLjI1LDAuMTgsMC41OCwwLjIsMC44NCwwLjA1bDEuNDQtMS40NWMwLjUzLTAuNDgsMS45OSwwLDIuMzcsMC4xNCAgICAgIGMwLjQ3LDAuMDUsMC44NSwwLjQxLDAuOTMsMC44OGwwLjI2LDIuMDJjMC4xNCwwLjMzLDAuNDUsMC41NSwwLjgxLDAuNTdsMS41NC0wLjA4YzAuMzYtMC4wMiwwLjY2LTAuMjksMC43MS0wLjY1bC0wLjA1LTIuMDMgICAgICBjMC0wLjQ5LDIuMzYtMi4wMSwzLjE0LTEuNTFsMC44OCwwLjUybDAuOTksMC41OGMwLjI5LDAuMTQsMC4zOCwwLjA5LDAuNjItMC4xMmwxLjA4LTEuMTRjMC4yMy0wLjMyLDAuMTgtMC43Ny0wLjExLTEuMDMgICAgICBsLTEuMjktMS4zOWMtMC4zOS0wLjMzLTAuMTktMS41My0wLjA2LTIuMzVjMC4xNS0wLjQ2LDAuNTctMC43OCwxLjA2LTAuNzlsMi4wNi0wLjRDMjIuNiwzMS4xMSwyMi4yNywyOS4wMywyMi4yNywyOS4wM3ogICAgICAgTTguNzUsMzMuODdjLTAuMDktMC4wOC0wLjE5LTAuMTYtMC4yOC0wLjI0Yy0xLjYyLTEuNDEtMS44LTMuODYtMC40LTUuNDljMCwwLDAsMCwwLjAzLTAuMDRjMS40My0xLjcxLDMuOTctMS45Niw1LjcxLTAuNTcgICAgICBsMC4wOCwwLjA3YzEuNjUsMS40OSwxLjgxLDQuMDIsMC4zNiw1LjcxYy0wLjIsMC4yNC0wLjQzLDAuNDUtMC42OCwwLjY0QzEyLjEzLDM1LjAyLDEwLjE1LDM0Ljk5LDguNzUsMzMuODd6Ii8+JiN4YTsJCQk8L2c+JiN4YTsJCQk8ZyBpZD0ic2hhcGU0MzcyLTIzIiB0cmFuc2Zvcm09InRyYW5zbGF0ZSgzLjE5NzM1LC0zLjAyMDM1KSI+JiN4YTsJCQkJPHRpdGxlIGlkPSJ0aXRsZTExOTI4Ij5wYXRoMTk0Ni4yNzM2ODwvdGl0bGU+JiN4YTsJCQkJPHBhdGggaWQ9InBhdGgxMTkzMCIgaW5rc2NhcGU6Y29ubmVjdG9yLWN1cnZhdHVyZT0iMCIgc3R5bGU9ImZpbGw6I0U1RTVFNTsiIGQ9Ik0xOC42LDM0LjRsLTIuMDcsMC40ICAgICAgYy0wLjQ4LDAuMDItMC45LDAuMzMtMS4wNSwwLjc5Yy0wLjEzLDAuODItMC4zNCwyLjAyLDAuMDYsMi4zNWwxLjI1LDEuNDJjMC4zLDAuMjYsMC4zNSwwLjcxLDAuMTEsMS4wM2wtMS4wOCwxLjE0ICAgICAgYy0wLjIzLDAuMjEtMC4zMywwLjI2LTAuNjIsMC4xMmwtMC45OC0wLjU3bC0zLjg3LTQuMTNjMC4yNy0wLjE4LDAuNTItMC40LDAuNzMtMC42NWMxLjQ1LTEuNjksMS4yOS00LjIyLTAuMzYtNS43MWwtMC4wOS0wLjA1ICAgICAgYy0xLjc0LTEuMzktNC4yOC0xLjE0LTUuNzEsMC41N2MwLDAsMCwwLTAuMDMsMC4wNEwwLDI1Ljg1bDAuMTItMC4xNGMwLjIzLTAuMjIsMC41Ny0wLjI3LDAuODUtMC4xM2wxLjYsMS4yOSAgICAgIGMwLjM5LDAuMjksMS41NCwwLjA4LDEuNTQsMC4wOGMxLjU0LTAuMjcsMS42Mi0xLjE0LDEuNjItMS42MmwtMC4wNy0yLjAyYzAuMDUtMC4zNiwwLjM1LTAuNjMsMC43MS0wLjY1bDEuNTUtMC4yNCAgICAgIGMwLjQsMC4wMiwwLjc0LDAuMzIsMC44MSwwLjcxbDAuMjMsMS44OGMwLjE1LDAuNDcsMC40OSwwLjg3LDAuOTMsMS4xYzAuMzMsMCwwLjY1LDAuMiwxLDAuMjJjMC40NiwwLjIzLDEuMDMsMC4xMywxLjM3LTAuMjYgICAgICBsMS40My0xLjI0YzAsMCwwLDAsMC0wLjA0YzAuMTktMC4yNSwwLjU1LTAuMywwLjgtMC4xMWMwLjAxLDAuMDEsMC4wMiwwLjAxLDAuMDMsMC4wMmwxLjI5LDEuMWMwLjI0LDAuMjksMC4yOCwwLjY4LDAuMTEsMS4wMiAgICAgIGwtMS4wNiwxLjQzYy0wLjUzLDAuNjQsMC40LDIuMzgsMC40LDIuMzhjMC4xMSwwLjQ0LDAuNSwwLjc0LDAuOTUsMC43M2wyLDAuMTRjMC41MywwLDAuODMsMC4zNywwLjgzLDAuNTcgICAgICBDMTkuMDcsMzIuMDYsMTkuNCwzNC4xMywxOC42LDM0LjR6Ii8+JiN4YTsJCQk8L2c+JiN4YTsJCQk8ZyBpZD0ic2hhcGU0MzczLTI1Ij4mI3hhOwkJCQk8dGl0bGUgaWQ9InRpdGxlMTE5MzMiPnBhdGgxOTQ4LjI3MzY5PC90aXRsZT4mI3hhOwkJCQkmI3hhOwkJCQkJPHBhdGggaWQ9InBhdGgxMTkzNSIgaW5rc2NhcGU6Y29ubmVjdG9yLWN1cnZhdHVyZT0iMCIgc3R5bGU9ImZpbGw6bm9uZTtzdHJva2U6IzU1NkE4QTtzdHJva2Utd2lkdGg6MS41O3N0cm9rZS1taXRlcmxpbWl0OjM7IiBkPSIgICAgICBNMTguNDMsMzguNjJjMC4yOSwwLjEzLDAuMzgsMC4wOSwwLjYyLTAuMTJsMS4wOC0xLjE1YzAuMjMtMC4zMiwwLjE4LTAuNzctMC4xMS0xLjAzbC0xLjI4LTEuMzhjLTAuNC0wLjMzLTAuMTktMS41My0wLjA2LTIuMzUgICAgICBjMC4xNS0wLjQ2LDAuNTctMC43NywxLjA1LTAuNzlsMi4wNi0wLjRjMC44MS0wLjI2LDAuNDctMi4zNSwwLjQ3LTIuMzVjMC0wLjE3LTAuMy0wLjUzLTAuODItMC41N2wtMi4wMy0wLjEzICAgICAgYy0wLjQ1LDAtMS45MS0yLjQ3LTEuMzgtMy4xMWwxLjEtMS40NmMwLjE3LTAuMzMsMC4xMy0wLjczLTAuMTEtMS4wMmwtMS4zLTEuMWMtMC4yNC0wLjItMC42LTAuMTgtMC44MSwwLjA2ICAgICAgYy0wLjAxLDAuMDEtMC4wMiwwLjAyLTAuMDIsMC4wM2wwLDAuMDRsLTEuNDIsMS4yOGMtMC4zNSwwLjM5LTMuMTQtMC41Ny0zLjMtMS4wNmwtMC4yMy0xLjg4Yy0wLjA3LTAuNC0wLjQxLTAuNy0wLjgxLTAuNzIgICAgICBsLTEuNTQsMC4yNmMtMC4zNiwwLjAyLTAuNjYsMC4yOS0wLjcxLDAuNjRsMC4wNiwyLjAyYzAsMC41LTAuMDgsMS4zNC0xLjYyLDEuNjJjMCwwLTEuMTQsMC4yLTEuNTUtMC4wOWwtMS42LTEuMjggICAgICBjLTAuMjgtMC4xNC0wLjYyLTAuMDktMC44NiwwLjEzTDIuMjMsMjRjLTAuMTksMC4yNS0wLjE1LDAuNjEsMC4xLDAuOGMwLjAxLDAuMDEsMC4wMiwwLjAxLDAuMDMsMC4wMmwxLjI3LDEuNTkgICAgICBjMC43MywwLjcyLDAuMDYsMS44OCwwLjA0LDIuMjFjLTAuMTIsMC41Mi0wLjU1LDAuOS0xLjA4LDAuOTZsLTIuMDIsMC4yNUMwLjI0LDI5Ljk3LDAuMDIsMzAuMjksMCwzMC42NWwwLjA2LDEuNzEgICAgICBjMC4xNiwwLjMxLDAuNDYsMC41MywwLjgxLDAuNTdsMi4wMywwLjExYzAuNjcsMC4wNCwxLjE0LDAuMjEsMS42LDEuNjJjMC4xOCwwLjM0LDAuMzEsMC43MS0wLjI0LDEuMzVsLTEuMTEsMS42MyAgICAgIGMtMC4xNCwwLjI4LTAuMDksMC42MiwwLjEzLDAuODZsMS4yOSwxLjA3YzAuMjUsMC4xOCwwLjU4LDAuMiwwLjg1LDAuMDVsMS40My0xLjQ0YzAuNTMtMC40OCwzLjIzLDAuNTcsMy4zMSwxLjAybDAuMjUsMi4wMiAgICAgIGMwLjE0LDAuMzMsMC40NiwwLjU2LDAuODIsMC41N2wxLjUzLTAuMDljMC4zNi0wLjAyLDAuNjYtMC4yOSwwLjcxLTAuNjRsLTAuMDUtMi4wM2MwLTAuNDksMi4zNi0yLjAxLDMuMTQtMS41MUwxOC40MywzOC42MnoiLz4mI3hhOwkJCTwvZz4mI3hhOwkJCTxnIGlkPSJzaGFwZTQzNzQtMjciIHRyYW5zZm9ybT0idHJhbnNsYXRlKDcuMTM2OTQsLTcuMDQ1NTkpIj4mI3hhOwkJCQk8dGl0bGUgaWQ9InRpdGxlMTE5MzgiPmNpcmNsZTE5NTAuMjczNzA8L3RpdGxlPiYjeGE7CQkJCSYjeGE7CQkJCQk8Y2lyY2xlIGlkPSJlbGxpcHNlMTE5NDAiIHN0eWxlPSJmaWxsOm5vbmU7c3Ryb2tlOiM1NTZBOEE7c3Ryb2tlLXdpZHRoOjEuNTtzdHJva2UtbWl0ZXJsaW1pdDozOyIgY3g9IjQuMDUiIGN5PSIzNy43NCIgcj0iNC4wNSIvPiYjeGE7CQkJPC9nPiYjeGE7CQk8L2c+JiN4YTsJPC9nPiYjeGE7PC9nPiYjeGE7PC9zdmc+;" vertex="1" parent="1">
          <mxGeometry x="491" y="170" width="87.75" height="90" as="geometry" />
        </mxCell>
        <mxCell id="Q-FP_CODCPaTkF4lISSn-16" value="" style="shape=image;verticalLabelPosition=bottom;labelBackgroundColor=#ffffff;verticalAlign=top;aspect=fixed;imageAspect=0;image=data:image/svg+xml,PHN2ZyB4bWxuczpkYz0iaHR0cDovL3B1cmwub3JnL2RjL2VsZW1lbnRzLzEuMS8iIHhtbG5zOmNjPSJodHRwOi8vY3JlYXRpdmVjb21tb25zLm9yZy9ucyMiIHhtbG5zOnJkZj0iaHR0cDovL3d3dy53My5vcmcvMTk5OS8wMi8yMi1yZGYtc3ludGF4LW5zIyIgeG1sbnM6c3ZnPSJodHRwOi8vd3d3LnczLm9yZy8yMDAwL3N2ZyIgeG1sbnM9Imh0dHA6Ly93d3cudzMub3JnLzIwMDAvc3ZnIiB4bWxuczp4bGluaz0iaHR0cDovL3d3dy53My5vcmcvMTk5OS94bGluayIgeG1sbnM6c29kaXBvZGk9Imh0dHA6Ly9zb2RpcG9kaS5zb3VyY2Vmb3JnZS5uZXQvRFREL3NvZGlwb2RpLTAuZHRkIiB4bWxuczppbmtzY2FwZT0iaHR0cDovL3d3dy5pbmtzY2FwZS5vcmcvbmFtZXNwYWNlcy9pbmtzY2FwZSIgdmVyc2lvbj0iMS4xIiBpZD0iTGF5ZXJfMSIgeD0iMHB4IiB5PSIwcHgiIHZpZXdCb3g9IjAgMCAzNS45Mzk5OTUgMzUuOTUwMDAxIiB4bWw6c3BhY2U9InByZXNlcnZlIiBzb2RpcG9kaTpkb2NuYW1lPSJzYXBfc2VfcmFiYml0bXEuc3ZnIiB3aWR0aD0iMzUuOTM5OTk1IiBoZWlnaHQ9IjM1Ljk1MDAwMSIgaW5rc2NhcGU6dmVyc2lvbj0iMC45Mi4zICgyNDA1NTQ2LCAyMDE4LTAzLTExKSI+PG1ldGFkYXRhIGlkPSJtZXRhZGF0YTYwODc3Ij48cmRmOlJERj48Y2M6V29yayByZGY6YWJvdXQ9IiI+PGRjOmZvcm1hdD5pbWFnZS9zdmcreG1sPC9kYzpmb3JtYXQ+PGRjOnR5cGUgcmRmOnJlc291cmNlPSJodHRwOi8vcHVybC5vcmcvZGMvZGNtaXR5cGUvU3RpbGxJbWFnZSIvPjxkYzp0aXRsZS8+PC9jYzpXb3JrPjwvcmRmOlJERj48L21ldGFkYXRhPjxkZWZzIGlkPSJkZWZzNjA4NzUiLz48c29kaXBvZGk6bmFtZWR2aWV3IHBhZ2Vjb2xvcj0iI2ZmZmZmZiIgYm9yZGVyY29sb3I9IiM2NjY2NjYiIGJvcmRlcm9wYWNpdHk9IjEiIG9iamVjdHRvbGVyYW5jZT0iMTAiIGdyaWR0b2xlcmFuY2U9IjEwIiBndWlkZXRvbGVyYW5jZT0iMTAiIGlua3NjYXBlOnBhZ2VvcGFjaXR5PSIwIiBpbmtzY2FwZTpwYWdlc2hhZG93PSIyIiBpbmtzY2FwZTp3aW5kb3ctd2lkdGg9IjE5MjAiIGlua3NjYXBlOndpbmRvdy1oZWlnaHQ9IjEwMTciIGlkPSJuYW1lZHZpZXc2MDg3MyIgc2hvd2dyaWQ9ImZhbHNlIiBmaXQtbWFyZ2luLXRvcD0iMCIgZml0LW1hcmdpbi1sZWZ0PSIwIiBmaXQtbWFyZ2luLXJpZ2h0PSIwIiBmaXQtbWFyZ2luLWJvdHRvbT0iMCIgaW5rc2NhcGU6em9vbT0iMS4wMzAzMDMiIGlua3NjYXBlOmN4PSItMjUuMjI1MDA2IiBpbmtzY2FwZTpjeT0iLTE5Mi4wNCIgaW5rc2NhcGU6d2luZG93LXg9Ii04IiBpbmtzY2FwZTp3aW5kb3cteT0iLTgiIGlua3NjYXBlOndpbmRvdy1tYXhpbWl6ZWQ9IjEiIGlua3NjYXBlOmN1cnJlbnQtbGF5ZXI9IkxheWVyXzEiLz4mI3hhOyYjeGE7PGcgaWQ9Imc2MDg3MCIgdHJhbnNmb3JtPSJ0cmFuc2xhdGUoLTMyMi42MDAwMSwtMTkyLjc2KSI+JiN4YTsJPGRlZnMgaWQ9ImRlZnM2MDg1NSI+JiN4YTsJCTxyZWN0IGlkPSJTVkdJRF8zXyIgeD0iMzIyLjYwMDAxIiB5PSIxOTIuNzU5OTkiIHdpZHRoPSIzNi44MiIgaGVpZ2h0PSIzNi44MiIvPiYjeGE7CTwvZGVmcz4mI3hhOwk8Y2xpcFBhdGggaWQ9IlNWR0lEXzRfIj4mI3hhOwkJPHVzZSB4bGluazpocmVmPSIjU1ZHSURfM18iIHN0eWxlPSJvdmVyZmxvdzp2aXNpYmxlIiBpZD0idXNlNjA4NTciIHg9IjAiIHk9IjAiIHdpZHRoPSIxMDAlIiBoZWlnaHQ9IjEwMCUiLz4mI3hhOwk8L2NsaXBQYXRoPiYjeGE7CTxnIGNsaXAtcGF0aD0idXJsKCNTVkdJRF80XykiIGlkPSJnNjA4NjgiPiYjeGE7CQk8ZGVmcyBpZD0iZGVmczYwODYxIj4mI3hhOwkJCTxyZWN0IGlkPSJTVkdJRF81XyIgeD0iMzIyLjYwMDAxIiB5PSIxOTIuNzU5OTkiIHdpZHRoPSIzNi44MiIgaGVpZ2h0PSIzNi44MiIvPiYjeGE7CQk8L2RlZnM+JiN4YTsJCTxjbGlwUGF0aCBpZD0iU1ZHSURfNl8iPiYjeGE7CQkJPHVzZSB4bGluazpocmVmPSIjU1ZHSURfNV8iIHN0eWxlPSJvdmVyZmxvdzp2aXNpYmxlIiBpZD0idXNlNjA4NjMiIHg9IjAiIHk9IjAiIHdpZHRoPSIxMDAlIiBoZWlnaHQ9IjEwMCUiLz4mI3hhOwkJPC9jbGlwUGF0aD4mI3hhOwkJPHBhdGggc3R5bGU9ImZpbGw6I2ViNjAyMiIgZD0ibSAzNTEuMzUsMjE5LjM2IGMgMCwxLjIgLTAuOTYsMi4xNiAtMi4xNiwyLjE2IGggLTIuODggYyAtMS4yLDAgLTIuMTYsLTAuOTYgLTIuMTYsLTIuMTYgdiAtMi44OCBjIDAsLTEuMiAwLjk2LC0yLjE2IDIuMTYsLTIuMTYgaCAyLjg4IGMgMS4yLDAgMi4xNiwwLjk2IDIuMTYsMi4xNiB6IG0gNS43NSwtMTIuMjIgaCAtMTEuNSBjIC0wLjc4LDAgLTEuNDQsLTAuNjYgLTEuNDQsLTEuNDQgdiAtMTEuNSBjIDAsLTAuNzggLTAuNjYsLTEuNDQgLTEuNDQsLTEuNDQgaCAtNC4zMSBjIC0wLjc4LDAgLTEuNDQsMC42NiAtMS40NCwxLjQ0IHYgMTEuNSBjIDAsMC43OCAtMC42NiwxLjQ0IC0xLjQ0LDEuNDQgaCAtNC4zMSBjIC0wLjc4LDAgLTEuNDQsLTAuNjYgLTEuNDQsLTEuNDQgdiAtMTEuNSBjIDAsLTAuNzggLTAuNjYsLTEuNDQgLTEuNDQsLTEuNDQgaCAtNC4zMSBjIC0wLjc4LDAgLTEuNDQsMC42NiAtMS40NCwxLjQ0IHYgMzMuMDcgYyAwLDAuNzggMC42NiwxLjQ0IDEuNDQsMS40NCBoIDMzLjA3IGMgMC43OCwwIDEuNDQsLTAuNjYgMS40NCwtMS40NCB2IC0xOC42OSBjIDAsLTAuNzkgLTAuNjYsLTEuNDQgLTEuNDQsLTEuNDQiIGNsaXAtcGF0aD0idXJsKCNTVkdJRF82XykiIGlkPSJwYXRoNjA4NjYiIGlua3NjYXBlOmNvbm5lY3Rvci1jdXJ2YXR1cmU9IjAiLz4mI3hhOwk8L2c+JiN4YTs8L2c+JiN4YTs8L3N2Zz4=;" vertex="1" parent="1">
          <mxGeometry x="870" y="576.5" width="40" height="40" as="geometry" />
        </mxCell>
        <mxCell id="Q-FP_CODCPaTkF4lISSn-22" style="edgeStyle=orthogonalEdgeStyle;rounded=0;orthogonalLoop=1;jettySize=auto;html=1;exitX=1;exitY=0.5;exitDx=0;exitDy=0;entryX=0;entryY=0.5;entryDx=0;entryDy=0;" edge="1" parent="1" source="Q-FP_CODCPaTkF4lISSn-17" target="Q-FP_CODCPaTkF4lISSn-7">
          <mxGeometry relative="1" as="geometry" />
        </mxCell>
        <mxCell id="Q-FP_CODCPaTkF4lISSn-24" style="edgeStyle=orthogonalEdgeStyle;rounded=0;orthogonalLoop=1;jettySize=auto;html=1;exitX=1;exitY=0.75;exitDx=0;exitDy=0;entryX=0.5;entryY=0;entryDx=0;entryDy=0;" edge="1" parent="1" source="Q-FP_CODCPaTkF4lISSn-17" target="Q-FP_CODCPaTkF4lISSn-23">
          <mxGeometry relative="1" as="geometry" />
        </mxCell>
        <mxCell id="Q-FP_CODCPaTkF4lISSn-34" value="&lt;br&gt;DATA VARIATION" style="edgeLabel;html=1;align=center;verticalAlign=middle;resizable=0;points=[];" vertex="1" connectable="0" parent="Q-FP_CODCPaTkF4lISSn-24">
          <mxGeometry x="0.2118" relative="1" as="geometry">
            <mxPoint as="offset" />
          </mxGeometry>
        </mxCell>
        <mxCell id="Q-FP_CODCPaTkF4lISSn-17" value="WEB API (REST - C# .NET 6)" style="shape=image;verticalLabelPosition=bottom;labelBackgroundColor=#ffffff;verticalAlign=top;aspect=fixed;imageAspect=0;image=data:image/svg+xml,PHN2ZyB4bWxuczpjYz0iaHR0cDovL2NyZWF0aXZlY29tbW9ucy5vcmcvbnMjIiB4bWxuczpkYz0iaHR0cDovL3B1cmwub3JnL2RjL2VsZW1lbnRzLzEuMS8iIHhtbG5zOmlua3NjYXBlPSJodHRwOi8vd3d3Lmlua3NjYXBlLm9yZy9uYW1lc3BhY2VzL2lua3NjYXBlIiB4bWxuczpyZGY9Imh0dHA6Ly93d3cudzMub3JnLzE5OTkvMDIvMjItcmRmLXN5bnRheC1ucyMiIHhtbG5zOnNvZGlwb2RpPSJodHRwOi8vc29kaXBvZGkuc291cmNlZm9yZ2UubmV0L0RURC9zb2RpcG9kaS0wLmR0ZCIgeG1sbnM6c3ZnPSJodHRwOi8vd3d3LnczLm9yZy8yMDAwL3N2ZyIgeG1sbnM9Imh0dHA6Ly93d3cudzMub3JnLzIwMDAvc3ZnIiB4bWxuczp4bGluaz0iaHR0cDovL3d3dy53My5vcmcvMTk5OS94bGluayIgdmVyc2lvbj0iMS4xIiBpZD0ic3ZnMTE5NDciIGlua3NjYXBlOnZlcnNpb249IjAuOTIuMyAoMjQwNTU0NiwgMjAxOC0wMy0xMSkiIHNvZGlwb2RpOmRvY25hbWU9IndlYl9zZXJ2aWNlLnN2ZyIgeD0iMHB4IiB5PSIwcHgiIHZpZXdCb3g9IjAgMCAzOC45NCA0MC4yOSIgc3R5bGU9ImVuYWJsZS1iYWNrZ3JvdW5kOm5ldyAwIDAgMzguOTQgNDAuMjk7IiB4bWw6c3BhY2U9InByZXNlcnZlIj4mI3hhOzxzb2RpcG9kaTpuYW1lZHZpZXcgYm9yZGVyY29sb3I9IiM2NjY2NjYiIGJvcmRlcm9wYWNpdHk9IjEiIGZpdC1tYXJnaW4tYm90dG9tPSIwIiBmaXQtbWFyZ2luLWxlZnQ9IjAiIGZpdC1tYXJnaW4tcmlnaHQ9IjAiIGZpdC1tYXJnaW4tdG9wPSIwIiBncmlkdG9sZXJhbmNlPSIxMCIgZ3VpZGV0b2xlcmFuY2U9IjEwIiBpZD0ibmFtZWR2aWV3MTE5NDkiIGlua3NjYXBlOmN1cnJlbnQtbGF5ZXI9InN2ZzExOTQ3IiBpbmtzY2FwZTpjeD0iMTUuODMwODM5IiBpbmtzY2FwZTpjeT0iMTcuOTAzNzI4IiBpbmtzY2FwZTpwYWdlb3BhY2l0eT0iMCIgaW5rc2NhcGU6cGFnZXNoYWRvdz0iMiIgaW5rc2NhcGU6d2luZG93LWhlaWdodD0iMTAxNyIgaW5rc2NhcGU6d2luZG93LW1heGltaXplZD0iMSIgaW5rc2NhcGU6d2luZG93LXdpZHRoPSIxOTIwIiBpbmtzY2FwZTp3aW5kb3cteD0iLTgiIGlua3NjYXBlOndpbmRvdy15PSItOCIgaW5rc2NhcGU6em9vbT0iNy43Nzk5Nzk5IiBvYmplY3R0b2xlcmFuY2U9IjEwIiBwYWdlY29sb3I9IiNmZmZmZmYiIHNob3dncmlkPSJmYWxzZSI+JiN4YTsJPC9zb2RpcG9kaTpuYW1lZHZpZXc+JiN4YTs8ZyBpZD0iZzExOTQ1IiB0cmFuc2Zvcm09InRyYW5zbGF0ZSgtMS4zMTI3MTA0LC0wLjc0Nzg2MzA5KSI+JiN4YTsJPHRpdGxlIGlkPSJ0aXRsZTExODc1Ij5QYWdlLTE8L3RpdGxlPiYjeGE7CTxnIGlkPSJncm91cDQzNjEtMSIgdHJhbnNmb3JtPSJ0cmFuc2xhdGUoMS41LC0xLjUpIj4mI3hhOwkJPHRpdGxlIGlkPSJ0aXRsZTExODc3Ij5XZWIgU2VydmljZTwvdGl0bGU+JiN4YTsJCTxnIGlkPSJzaGFwZTQzNjItMiIgdHJhbnNmb3JtPSJ0cmFuc2xhdGUoNS4zNzk3NCwtOS4wNzcxNykiPiYjeGE7CQkJPHRpdGxlIGlkPSJ0aXRsZTExODc5Ij5wYXRoOTYxMDwvdGl0bGU+JiN4YTsJCQkmI3hhOwkJCQk8cGF0aCBpZD0icGF0aDExODgxIiBpbmtzY2FwZTpjb25uZWN0b3ItY3VydmF0dXJlPSIwIiBzdHlsZT0iZmlsbDojRkZGRkZGO3N0cm9rZTojNTU2QThBO3N0cm9rZS13aWR0aDowLjc1O3N0cm9rZS1taXRlcmxpbWl0OjM7IiBkPSIgICAgIE0zMC4wOSwyOS4zM2MwLDkuNzMtNy45LDE3LjYyLTE3LjYzLDE3LjYycy0xNy42Mi03LjktMTcuNjItMTcuNjNjMC05LjczLDcuODktMTcuNjIsMTcuNjItMTcuNjIgICAgIEMyMi4xOSwxMS43MSwzMC4wOCwxOS42LDMwLjA5LDI5LjMzeiIvPiYjeGE7CQk8L2c+JiN4YTsJCTxnIGlkPSJzaGFwZTQzNjMtNCIgdHJhbnNmb3JtPSJ0cmFuc2xhdGUoMC4yMTc0OTIsLTMuOTE0OTMpIj4mI3hhOwkJCTx0aXRsZSBpZD0idGl0bGUxMTg4NCI+cGF0aDk2MTI8L3RpdGxlPiYjeGE7CQkJPHBhdGggaWQ9InBhdGgxMTg4NiIgaW5rc2NhcGU6Y29ubmVjdG9yLWN1cnZhdHVyZT0iMCIgc3R5bGU9ImZpbGw6I0FDRThGOTsiIGQ9Ik0zNS4yNSwyNC4xNmMwLDkuNzMtNy44OSwxNy42Mi0xNy42MywxNy42MiAgICAgUzAsMzMuODksMCwyNC4xNmwwLDBIMzUuMjV6Ii8+JiN4YTsJCTwvZz4mI3hhOwkJPGcgaWQ9InNoYXBlNDM2NC02IiB0cmFuc2Zvcm09InRyYW5zbGF0ZSgxLjM0MjQ5LC04LjgxMikiPiYjeGE7CQkJPHRpdGxlIGlkPSJ0aXRsZTExODg5Ij5wYXRoOTYxNDwvdGl0bGU+JiN4YTsJCQk8cGF0aCBpZD0icGF0aDExODkxIiBpbmtzY2FwZTpjb25uZWN0b3ItY3VydmF0dXJlPSIwIiBzdHlsZT0iZmlsbDojNTU2QThBOyIgZD0iTTE2LjUsMTIuNTZjOS4xMSwwLDE2LjUsNy4zOSwxNi41LDE2LjUgICAgIHMtNy4zOSwxNi41LTE2LjUsMTYuNVMwLDM4LjE3LDAsMjkuMDZjMCwwLDAsMCwwLDBDMCwxOS45NSw3LjM5LDEyLjU2LDE2LjUsMTIuNTZ6IE0xNi41LDExLjA2Yy05Ljk0LDAtMTgsOC4wNi0xOCwxOCAgICAgczguMDYsMTgsMTgsMThzMTgtOC4wNiwxOC0xOFMyNi40NCwxMS4wNiwxNi41LDExLjA2eiIvPiYjeGE7CQk8L2c+JiN4YTsJCTxnIGlkPSJncm91cDQzNjUtOCIgdHJhbnNmb3JtPSJ0cmFuc2xhdGUoMCwtMy41Mzk5MykiPiYjeGE7CQkJPHRpdGxlIGlkPSJ0aXRsZTExODk0Ij5nOTYyMDwvdGl0bGU+JiN4YTsJCQk8ZyBpZD0ic2hhcGU0MzY2LTkiIHRyYW5zZm9ybT0idHJhbnNsYXRlKDkuNTkyNDkpIj4mI3hhOwkJCQk8dGl0bGUgaWQ9InRpdGxlMTE4OTYiPnBhdGg5NjE2PC90aXRsZT4mI3hhOwkJCQk8cGF0aCBpZD0icGF0aDExODk4IiBpbmtzY2FwZTpjb25uZWN0b3ItY3VydmF0dXJlPSIwIiBzdHlsZT0iZmlsbDojNTU2QThBOyIgZD0iTTcuODcsNy40OWMzLDAsNi4zOCw3LjAxLDYuMzgsMTYuNCAgICAgIGMwLDkuMzgtMy4zOCwxNi40LTYuMzgsMTYuNFMxLjUsMzMuMjgsMS41LDIzLjg5QzEuNSwxNC41MSw0Ljg3LDcuNDksNy44Nyw3LjQ5eiBNNy44Nyw1Ljk5QzMuNTIsNS45OSwwLDE0LDAsMjMuODkgICAgICBjMCw5Ljg4LDMuNTIsMTcuOSw3Ljg3LDE3LjlzNy44OC04LjAxLDcuODgtMTcuOUMxNS43NSwxNC4wMSwxMi4yMiw1Ljk5LDcuODcsNS45OXoiLz4mI3hhOwkJCTwvZz4mI3hhOwkJCTxnIGlkPSJzaGFwZTQzNjctMTEiIHRyYW5zZm9ybT0idHJhbnNsYXRlKDAsLTE4KSI+JiN4YTsJCQkJPHRpdGxlIGlkPSJ0aXRsZTExOTAxIj5saW5lOTYxODwvdGl0bGU+JiN4YTsJCQkJJiN4YTsJCQkJCTxwYXRoIGlkPSJwYXRoMTE5MDMiIGlua3NjYXBlOmNvbm5lY3Rvci1jdXJ2YXR1cmU9IjAiIHN0eWxlPSJmaWxsOm5vbmU7c3Ryb2tlOiM1NTZBOEE7c3Ryb2tlLXdpZHRoOjEuNTtzdHJva2UtbWl0ZXJsaW1pdDozOyIgZD0iICAgICAgTTAsNDEuNzloMzUuMDkiLz4mI3hhOwkJCTwvZz4mI3hhOwkJPC9nPiYjeGE7CQk8ZyBpZD0ic2hhcGU0MzY4LTE0IiB0cmFuc2Zvcm09InRyYW5zbGF0ZSg0LjM0OTk5LC0zMC41Mzk5KSI+JiN4YTsJCQk8dGl0bGUgaWQ9InRpdGxlMTE5MDciPnBhdGg5NjIyPC90aXRsZT4mI3hhOwkJCTxwYXRoIGlkPSJwYXRoMTE5MDkiIGlua3NjYXBlOmNvbm5lY3Rvci1jdXJ2YXR1cmU9IjAiIHN0eWxlPSJmaWxsOm5vbmU7IiBkPSJNMCwzOS43NmMzLjI5LDEuMjgsOC4xMiwyLjAzLDEzLjQ5LDIuMDMgICAgIHMxMC4yLTAuNzUsMTMuNS0yLjAzSDB6Ii8+JiN4YTsJCQkmI3hhOwkJCQk8cGF0aCBpZD0icGF0aDExOTExIiBpbmtzY2FwZTpjb25uZWN0b3ItY3VydmF0dXJlPSIwIiBzdHlsZT0iZmlsbDpub25lO3N0cm9rZTojNTU2QThBO3N0cm9rZS13aWR0aDoxLjU7c3Ryb2tlLW1pdGVybGltaXQ6MzsiIGQ9IiAgICAgTTAsMzkuNzZjMy4yOSwxLjI4LDguMTIsMi4wMywxMy40OSwyLjAzczEwLjItMC43NSwxMy41LTIuMDMiLz4mI3hhOwkJPC9nPiYjeGE7CQk8ZyBpZD0ic2hhcGU0MzY5LTE3IiB0cmFuc2Zvcm09InRyYW5zbGF0ZSg0LjM0OTk5LC0xMC41MDc0KSI+JiN4YTsJCQk8dGl0bGUgaWQ9InRpdGxlMTE5MTQiPnBhdGg5NjI0PC90aXRsZT4mI3hhOwkJCTxwYXRoIGlkPSJwYXRoMTE5MTYiIGlua3NjYXBlOmNvbm5lY3Rvci1jdXJ2YXR1cmU9IjAiIHN0eWxlPSJmaWxsOm5vbmU7IiBkPSJNMCw0MS43OWMzLjI5LTEuMjgsOC4xMi0yLjAzLDEzLjQ5LTIuMDMgICAgIHMxMC4yLDAuNzUsMTMuNSwyLjAzSDB6Ii8+JiN4YTsJCQkmI3hhOwkJCQk8cGF0aCBpZD0icGF0aDExOTE4IiBpbmtzY2FwZTpjb25uZWN0b3ItY3VydmF0dXJlPSIwIiBzdHlsZT0iZmlsbDpub25lO3N0cm9rZTojNTU2QThBO3N0cm9rZS13aWR0aDoxLjU7c3Ryb2tlLW1pdGVybGltaXQ6MzsiIGQ9IiAgICAgTTAsNDEuNzljMy4yOS0xLjI4LDguMTItMi4wMywxMy40OS0yLjAzczEwLjIsMC43NSwxMy41LDIuMDMiLz4mI3hhOwkJPC9nPiYjeGE7CQk8ZyBpZD0iZ3JvdXA0MzcwLTIwIiB0cmFuc2Zvcm09InRyYW5zbGF0ZSgxNS42NjkzKSI+JiN4YTsJCQk8dGl0bGUgaWQ9InRpdGxlMTE5MjEiPkNvbmZpZ3VyYXRpb248L3RpdGxlPiYjeGE7CQkJPGcgaWQ9InNoYXBlNDM3MS0yMSI+JiN4YTsJCQkJPHRpdGxlIGlkPSJ0aXRsZTExOTIzIj5wYXRoMTk0NC4yNzM2NzwvdGl0bGU+JiN4YTsJCQkJPHBhdGggaWQ9InBhdGgxMTkyNSIgaW5rc2NhcGU6Y29ubmVjdG9yLWN1cnZhdHVyZT0iMCIgc3R5bGU9ImZpbGw6I0ZGRkZGRjsiIGQ9Ik0yMi4yNywyOS4wM2MwLTAuMTctMC4yOS0wLjUzLTAuODItMC41NyAgICAgIGwtMi4wNC0wLjEyYy0wLjQ2LDAuMDItMC44Ny0wLjI4LTAuOTgtMC43M2MwLDAuMDEtMC45My0xLjc0LTAuNC0yLjM3bDEuMDktMS40N2MwLjE3LTAuMzMsMC4xMi0wLjczLTAuMTEtMS4wMmwtMS4zLTEuMDkgICAgICBjLTAuMjQtMC4yLTAuNi0wLjE4LTAuODEsMC4wNmMtMC4wMSwwLjAxLTAuMDIsMC4wMi0wLjAyLDAuMDNjMCwwLDAsMCwwLDAuMDNsLTEuNDIsMS4yOWMtMC4zNCwwLjM5LTAuOTEsMC40OS0xLjM3LDAuMjYgICAgICBjLTAuMzUsMC0wLjY3LTAuMi0xLTAuMjJjLTAuNDQtMC4yMy0wLjc4LTAuNjMtMC45My0xLjFsLTAuMjMtMS44OGMtMC4wNy0wLjQtMC40MS0wLjctMC44MS0wLjcxbC0xLjU1LDAuMjUgICAgICBjLTAuMzYsMC4wMi0wLjY2LDAuMjktMC43MSwwLjY1bDAuMDYsMi4wMWMwLDAuNS0wLjA3LDEuMzUtMS42MSwxLjYyYzAsMC0xLjE0LDAuMi0xLjU0LTAuMDhsLTEuNi0xLjI5ICAgICAgYy0wLjI4LTAuMTQtMC42Mi0wLjA5LTAuODUsMC4xM0wzLjIsMjIuODVsLTAuOTcsMS4xNGMtMC4yLDAuMjUtMC4xNiwwLjYxLDAuMDksMC44YzAuMDEsMC4wMSwwLjAyLDAuMDIsMC4wMywwLjAzbDEuMjcsMS41OSAgICAgIGMwLjczLDAuNzIsMC4wNiwxLjg3LDAuMDQsMi4yMWMtMC4xMiwwLjUyLTAuNTUsMC45LTEuMDgsMC45NmwtMi4wMiwwLjI1QzAuMjQsMjkuOTcsMC4wMSwzMC4yOSwwLDMwLjY1bDAuMDYsMS43MiAgICAgIGMwLjE2LDAuMzEsMC40NiwwLjUzLDAuODEsMC41N2wyLjA0LDAuMTFjMC42NywwLjAzLDEuMTQsMC4yMSwxLjYsMS42MmMwLjE4LDAuMzQsMC4zLDAuNzEtMC4yNCwxLjM0bC0xLjExLDEuNjQgICAgICBjLTAuMTQsMC4yOS0wLjA5LDAuNjMsMC4xMiwwLjg2bDEuMjksMS4wN2MwLjI1LDAuMTgsMC41OCwwLjIsMC44NCwwLjA1bDEuNDQtMS40NWMwLjUzLTAuNDgsMS45OSwwLDIuMzcsMC4xNCAgICAgIGMwLjQ3LDAuMDUsMC44NSwwLjQxLDAuOTMsMC44OGwwLjI2LDIuMDJjMC4xNCwwLjMzLDAuNDUsMC41NSwwLjgxLDAuNTdsMS41NC0wLjA4YzAuMzYtMC4wMiwwLjY2LTAuMjksMC43MS0wLjY1bC0wLjA1LTIuMDMgICAgICBjMC0wLjQ5LDIuMzYtMi4wMSwzLjE0LTEuNTFsMC44OCwwLjUybDAuOTksMC41OGMwLjI5LDAuMTQsMC4zOCwwLjA5LDAuNjItMC4xMmwxLjA4LTEuMTRjMC4yMy0wLjMyLDAuMTgtMC43Ny0wLjExLTEuMDMgICAgICBsLTEuMjktMS4zOWMtMC4zOS0wLjMzLTAuMTktMS41My0wLjA2LTIuMzVjMC4xNS0wLjQ2LDAuNTctMC43OCwxLjA2LTAuNzlsMi4wNi0wLjRDMjIuNiwzMS4xMSwyMi4yNywyOS4wMywyMi4yNywyOS4wM3ogICAgICAgTTguNzUsMzMuODdjLTAuMDktMC4wOC0wLjE5LTAuMTYtMC4yOC0wLjI0Yy0xLjYyLTEuNDEtMS44LTMuODYtMC40LTUuNDljMCwwLDAsMCwwLjAzLTAuMDRjMS40My0xLjcxLDMuOTctMS45Niw1LjcxLTAuNTcgICAgICBsMC4wOCwwLjA3YzEuNjUsMS40OSwxLjgxLDQuMDIsMC4zNiw1LjcxYy0wLjIsMC4yNC0wLjQzLDAuNDUtMC42OCwwLjY0QzEyLjEzLDM1LjAyLDEwLjE1LDM0Ljk5LDguNzUsMzMuODd6Ii8+JiN4YTsJCQk8L2c+JiN4YTsJCQk8ZyBpZD0ic2hhcGU0MzcyLTIzIiB0cmFuc2Zvcm09InRyYW5zbGF0ZSgzLjE5NzM1LC0zLjAyMDM1KSI+JiN4YTsJCQkJPHRpdGxlIGlkPSJ0aXRsZTExOTI4Ij5wYXRoMTk0Ni4yNzM2ODwvdGl0bGU+JiN4YTsJCQkJPHBhdGggaWQ9InBhdGgxMTkzMCIgaW5rc2NhcGU6Y29ubmVjdG9yLWN1cnZhdHVyZT0iMCIgc3R5bGU9ImZpbGw6I0U1RTVFNTsiIGQ9Ik0xOC42LDM0LjRsLTIuMDcsMC40ICAgICAgYy0wLjQ4LDAuMDItMC45LDAuMzMtMS4wNSwwLjc5Yy0wLjEzLDAuODItMC4zNCwyLjAyLDAuMDYsMi4zNWwxLjI1LDEuNDJjMC4zLDAuMjYsMC4zNSwwLjcxLDAuMTEsMS4wM2wtMS4wOCwxLjE0ICAgICAgYy0wLjIzLDAuMjEtMC4zMywwLjI2LTAuNjIsMC4xMmwtMC45OC0wLjU3bC0zLjg3LTQuMTNjMC4yNy0wLjE4LDAuNTItMC40LDAuNzMtMC42NWMxLjQ1LTEuNjksMS4yOS00LjIyLTAuMzYtNS43MWwtMC4wOS0wLjA1ICAgICAgYy0xLjc0LTEuMzktNC4yOC0xLjE0LTUuNzEsMC41N2MwLDAsMCwwLTAuMDMsMC4wNEwwLDI1Ljg1bDAuMTItMC4xNGMwLjIzLTAuMjIsMC41Ny0wLjI3LDAuODUtMC4xM2wxLjYsMS4yOSAgICAgIGMwLjM5LDAuMjksMS41NCwwLjA4LDEuNTQsMC4wOGMxLjU0LTAuMjcsMS42Mi0xLjE0LDEuNjItMS42MmwtMC4wNy0yLjAyYzAuMDUtMC4zNiwwLjM1LTAuNjMsMC43MS0wLjY1bDEuNTUtMC4yNCAgICAgIGMwLjQsMC4wMiwwLjc0LDAuMzIsMC44MSwwLjcxbDAuMjMsMS44OGMwLjE1LDAuNDcsMC40OSwwLjg3LDAuOTMsMS4xYzAuMzMsMCwwLjY1LDAuMiwxLDAuMjJjMC40NiwwLjIzLDEuMDMsMC4xMywxLjM3LTAuMjYgICAgICBsMS40My0xLjI0YzAsMCwwLDAsMC0wLjA0YzAuMTktMC4yNSwwLjU1LTAuMywwLjgtMC4xMWMwLjAxLDAuMDEsMC4wMiwwLjAxLDAuMDMsMC4wMmwxLjI5LDEuMWMwLjI0LDAuMjksMC4yOCwwLjY4LDAuMTEsMS4wMiAgICAgIGwtMS4wNiwxLjQzYy0wLjUzLDAuNjQsMC40LDIuMzgsMC40LDIuMzhjMC4xMSwwLjQ0LDAuNSwwLjc0LDAuOTUsMC43M2wyLDAuMTRjMC41MywwLDAuODMsMC4zNywwLjgzLDAuNTcgICAgICBDMTkuMDcsMzIuMDYsMTkuNCwzNC4xMywxOC42LDM0LjR6Ii8+JiN4YTsJCQk8L2c+JiN4YTsJCQk8ZyBpZD0ic2hhcGU0MzczLTI1Ij4mI3hhOwkJCQk8dGl0bGUgaWQ9InRpdGxlMTE5MzMiPnBhdGgxOTQ4LjI3MzY5PC90aXRsZT4mI3hhOwkJCQkmI3hhOwkJCQkJPHBhdGggaWQ9InBhdGgxMTkzNSIgaW5rc2NhcGU6Y29ubmVjdG9yLWN1cnZhdHVyZT0iMCIgc3R5bGU9ImZpbGw6bm9uZTtzdHJva2U6IzU1NkE4QTtzdHJva2Utd2lkdGg6MS41O3N0cm9rZS1taXRlcmxpbWl0OjM7IiBkPSIgICAgICBNMTguNDMsMzguNjJjMC4yOSwwLjEzLDAuMzgsMC4wOSwwLjYyLTAuMTJsMS4wOC0xLjE1YzAuMjMtMC4zMiwwLjE4LTAuNzctMC4xMS0xLjAzbC0xLjI4LTEuMzhjLTAuNC0wLjMzLTAuMTktMS41My0wLjA2LTIuMzUgICAgICBjMC4xNS0wLjQ2LDAuNTctMC43NywxLjA1LTAuNzlsMi4wNi0wLjRjMC44MS0wLjI2LDAuNDctMi4zNSwwLjQ3LTIuMzVjMC0wLjE3LTAuMy0wLjUzLTAuODItMC41N2wtMi4wMy0wLjEzICAgICAgYy0wLjQ1LDAtMS45MS0yLjQ3LTEuMzgtMy4xMWwxLjEtMS40NmMwLjE3LTAuMzMsMC4xMy0wLjczLTAuMTEtMS4wMmwtMS4zLTEuMWMtMC4yNC0wLjItMC42LTAuMTgtMC44MSwwLjA2ICAgICAgYy0wLjAxLDAuMDEtMC4wMiwwLjAyLTAuMDIsMC4wM2wwLDAuMDRsLTEuNDIsMS4yOGMtMC4zNSwwLjM5LTMuMTQtMC41Ny0zLjMtMS4wNmwtMC4yMy0xLjg4Yy0wLjA3LTAuNC0wLjQxLTAuNy0wLjgxLTAuNzIgICAgICBsLTEuNTQsMC4yNmMtMC4zNiwwLjAyLTAuNjYsMC4yOS0wLjcxLDAuNjRsMC4wNiwyLjAyYzAsMC41LTAuMDgsMS4zNC0xLjYyLDEuNjJjMCwwLTEuMTQsMC4yLTEuNTUtMC4wOWwtMS42LTEuMjggICAgICBjLTAuMjgtMC4xNC0wLjYyLTAuMDktMC44NiwwLjEzTDIuMjMsMjRjLTAuMTksMC4yNS0wLjE1LDAuNjEsMC4xLDAuOGMwLjAxLDAuMDEsMC4wMiwwLjAxLDAuMDMsMC4wMmwxLjI3LDEuNTkgICAgICBjMC43MywwLjcyLDAuMDYsMS44OCwwLjA0LDIuMjFjLTAuMTIsMC41Mi0wLjU1LDAuOS0xLjA4LDAuOTZsLTIuMDIsMC4yNUMwLjI0LDI5Ljk3LDAuMDIsMzAuMjksMCwzMC42NWwwLjA2LDEuNzEgICAgICBjMC4xNiwwLjMxLDAuNDYsMC41MywwLjgxLDAuNTdsMi4wMywwLjExYzAuNjcsMC4wNCwxLjE0LDAuMjEsMS42LDEuNjJjMC4xOCwwLjM0LDAuMzEsMC43MS0wLjI0LDEuMzVsLTEuMTEsMS42MyAgICAgIGMtMC4xNCwwLjI4LTAuMDksMC42MiwwLjEzLDAuODZsMS4yOSwxLjA3YzAuMjUsMC4xOCwwLjU4LDAuMiwwLjg1LDAuMDVsMS40My0xLjQ0YzAuNTMtMC40OCwzLjIzLDAuNTcsMy4zMSwxLjAybDAuMjUsMi4wMiAgICAgIGMwLjE0LDAuMzMsMC40NiwwLjU2LDAuODIsMC41N2wxLjUzLTAuMDljMC4zNi0wLjAyLDAuNjYtMC4yOSwwLjcxLTAuNjRsLTAuMDUtMi4wM2MwLTAuNDksMi4zNi0yLjAxLDMuMTQtMS41MUwxOC40MywzOC42MnoiLz4mI3hhOwkJCTwvZz4mI3hhOwkJCTxnIGlkPSJzaGFwZTQzNzQtMjciIHRyYW5zZm9ybT0idHJhbnNsYXRlKDcuMTM2OTQsLTcuMDQ1NTkpIj4mI3hhOwkJCQk8dGl0bGUgaWQ9InRpdGxlMTE5MzgiPmNpcmNsZTE5NTAuMjczNzA8L3RpdGxlPiYjeGE7CQkJCSYjeGE7CQkJCQk8Y2lyY2xlIGlkPSJlbGxpcHNlMTE5NDAiIHN0eWxlPSJmaWxsOm5vbmU7c3Ryb2tlOiM1NTZBOEE7c3Ryb2tlLXdpZHRoOjEuNTtzdHJva2UtbWl0ZXJsaW1pdDozOyIgY3g9IjQuMDUiIGN5PSIzNy43NCIgcj0iNC4wNSIvPiYjeGE7CQkJPC9nPiYjeGE7CQk8L2c+JiN4YTsJPC9nPiYjeGE7PC9nPiYjeGE7PC9zdmc+;" vertex="1" parent="1">
          <mxGeometry x="385" y="336.5" width="87.75" height="90" as="geometry" />
        </mxCell>
        <mxCell id="Q-FP_CODCPaTkF4lISSn-26" style="edgeStyle=orthogonalEdgeStyle;rounded=0;orthogonalLoop=1;jettySize=auto;html=1;entryX=0.5;entryY=0;entryDx=0;entryDy=0;" edge="1" parent="1" source="Q-FP_CODCPaTkF4lISSn-23" target="Q-FP_CODCPaTkF4lISSn-25">
          <mxGeometry relative="1" as="geometry">
            <mxPoint x="670" y="687.5" as="targetPoint" />
          </mxGeometry>
        </mxCell>
        <mxCell id="Q-FP_CODCPaTkF4lISSn-23" value="EVENT MESSAGE" style="shape=message;html=1;html=1;outlineConnect=0;labelPosition=center;verticalLabelPosition=bottom;align=center;verticalAlign=top;" vertex="1" parent="1">
          <mxGeometry x="570" y="520" width="60" height="40" as="geometry" />
        </mxCell>
        <mxCell id="Q-FP_CODCPaTkF4lISSn-39" style="edgeStyle=orthogonalEdgeStyle;rounded=0;orthogonalLoop=1;jettySize=auto;html=1;entryX=0.5;entryY=0;entryDx=0;entryDy=0;exitX=0;exitY=0.5;exitDx=0;exitDy=0;" edge="1" parent="1" source="Q-FP_CODCPaTkF4lISSn-25" target="Q-FP_CODCPaTkF4lISSn-36">
          <mxGeometry relative="1" as="geometry">
            <mxPoint x="481" y="724" as="targetPoint" />
          </mxGeometry>
        </mxCell>
        <mxCell id="Q-FP_CODCPaTkF4lISSn-25" value="MESSAGE QUEUE" style="shape=image;verticalLabelPosition=bottom;labelBackgroundColor=#ffffff;verticalAlign=top;aspect=fixed;imageAspect=0;image=data:image/svg+xml,PHN2ZyB4bWxuczpjYz0iaHR0cDovL2NyZWF0aXZlY29tbW9ucy5vcmcvbnMjIiB4bWxuczpkYz0iaHR0cDovL3B1cmwub3JnL2RjL2VsZW1lbnRzLzEuMS8iIHhtbG5zOmlua3NjYXBlPSJodHRwOi8vd3d3Lmlua3NjYXBlLm9yZy9uYW1lc3BhY2VzL2lua3NjYXBlIiB4bWxuczpyZGY9Imh0dHA6Ly93d3cudzMub3JnLzE5OTkvMDIvMjItcmRmLXN5bnRheC1ucyMiIHhtbG5zOnNvZGlwb2RpPSJodHRwOi8vc29kaXBvZGkuc291cmNlZm9yZ2UubmV0L0RURC9zb2RpcG9kaS0wLmR0ZCIgeG1sbnM6c3ZnPSJodHRwOi8vd3d3LnczLm9yZy8yMDAwL3N2ZyIgeG1sbnM9Imh0dHA6Ly93d3cudzMub3JnLzIwMDAvc3ZnIiB4bWxuczp4bGluaz0iaHR0cDovL3d3dy53My5vcmcvMTk5OS94bGluayIgdmVyc2lvbj0iMS4xIiBpZD0ic3ZnODM4NzMiIGlua3NjYXBlOnZlcnNpb249IjAuOTIuMyAoMjQwNTU0NiwgMjAxOC0wMy0xMSkiIHNvZGlwb2RpOmRvY25hbWU9InF1ZXVlLnN2ZyIgeD0iMHB4IiB5PSIwcHgiIHZpZXdCb3g9IjAgMCAxMDguNTMgNTIuODQiIHN0eWxlPSJlbmFibGUtYmFja2dyb3VuZDpuZXcgMCAwIDEwOC41MyA1Mi44NDsiIHhtbDpzcGFjZT0icHJlc2VydmUiPiYjeGE7PHNvZGlwb2RpOm5hbWVkdmlldyBib3JkZXJjb2xvcj0iIzY2NjY2NiIgYm9yZGVyb3BhY2l0eT0iMSIgZml0LW1hcmdpbi1ib3R0b209IjAiIGZpdC1tYXJnaW4tbGVmdD0iMCIgZml0LW1hcmdpbi1yaWdodD0iMCIgZml0LW1hcmdpbi10b3A9IjAiIGdyaWR0b2xlcmFuY2U9IjEwIiBndWlkZXRvbGVyYW5jZT0iMTAiIGlkPSJuYW1lZHZpZXc4Mzg3NSIgaW5rc2NhcGU6Y3VycmVudC1sYXllcj0ic3ZnODM4NzMiIGlua3NjYXBlOmN4PSI4Ny44NDUyMjIiIGlua3NjYXBlOmN5PSItNy44NDQ4OTU4IiBpbmtzY2FwZTpwYWdlb3BhY2l0eT0iMCIgaW5rc2NhcGU6cGFnZXNoYWRvdz0iMiIgaW5rc2NhcGU6d2luZG93LWhlaWdodD0iMTAxNyIgaW5rc2NhcGU6d2luZG93LW1heGltaXplZD0iMSIgaW5rc2NhcGU6d2luZG93LXdpZHRoPSIxOTIwIiBpbmtzY2FwZTp3aW5kb3cteD0iLTgiIGlua3NjYXBlOndpbmRvdy15PSItOCIgaW5rc2NhcGU6em9vbT0iMy41MjA3MTQyIiBvYmplY3R0b2xlcmFuY2U9IjEwIiBwYWdlY29sb3I9IiNmZmZmZmYiIHNob3dncmlkPSJmYWxzZSI+JiN4YTsJPC9zb2RpcG9kaTpuYW1lZHZpZXc+JiN4YTs8ZyBpZD0iZzgzODcxIiB0cmFuc2Zvcm09InRyYW5zbGF0ZSgwLC00Ljc1MjM3MTJlLTUpIj4mI3hhOwk8dGl0bGUgaWQ9InRpdGxlODM4NjQiPlBhZ2UtMTwvdGl0bGU+JiN4YTsJPGcgaWQ9InNoYXBlNDUwMy0xIj4mI3hhOwkJPHRpdGxlIGlkPSJ0aXRsZTgzODY2Ij5RdWV1ZTwvdGl0bGU+JiN4YTsJCTxwYXRoIGlkPSJwYXRoODM4NjgiIGlua3NjYXBlOmNvbm5lY3Rvci1jdXJ2YXR1cmU9IjAiIHN0eWxlPSJmaWxsOiMzRjU3NjU7IiBkPSJNMTA2LjI1LDBDMi4yOSwwLDIuMjksMCwyLjI5LDAgICAgQzEuMTUsMCwwLDEuMTUsMCwyLjI4YzAsNDguMjksMCw0OC4yOSwwLDQ4LjI5YzAsMS4xNCwxLjE1LDIuMjcsMi4yOSwyLjI3YzEwMy45NiwwLDEwMy45NiwwLDEwMy45NiwwICAgIGMxLjMzLDAsMi4yOC0xLjEzLDIuMjgtMi4yN2MwLTQ4LjI5LDAtNDguMjksMC00OC4yOUMxMDguNTMsMS4xNSwxMDcuNTgsMCwxMDYuMjUsMHogTTIyLjY2LDQ2LjE5Yy0xNS44LDAtMTUuOCwwLTE1LjgsMCAgICBjMC0zOS4zNCwwLTM5LjM0LDAtMzkuMzRjMTUuOCwwLDE1LjgsMCwxNS44LDBWNDYuMTl6IE00Mi40Niw0Ni4xOWMtMTUuOTksMC0xNS45OSwwLTE1Ljk5LDBjMC0zOS4zNCwwLTM5LjM0LDAtMzkuMzQgICAgYzE1Ljk5LDAsMTUuOTksMCwxNS45OSwwVjQ2LjE5eiBNNjIuNDYsNDYuMTljLTE2LjE5LDAtMTYuMTksMC0xNi4xOSwwYzAtMzkuMzQsMC0zOS4zNCwwLTM5LjM0YzE2LjE5LDAsMTYuMTksMCwxNi4xOSwwVjQ2LjE5eiAgICAgTTgyLjQ1LDQ2LjE5Yy0xNi4xOSwwLTE2LjE5LDAtMTYuMTksMGMwLTM5LjM0LDAtMzkuMzQsMC0zOS4zNGMxNi4xOSwwLDE2LjE5LDAsMTYuMTksMFY0Ni4xOXogTTEwMi4wNiw0Ni4xOSAgICBjLTE1LjgsMC0xNS44LDAtMTUuOCwwYzAtMzkuMzQsMC0zOS4zNCwwLTM5LjM0YzE1LjgsMCwxNS44LDAsMTUuOCwwVjQ2LjE5eiIvPiYjeGE7CTwvZz4mI3hhOzwvZz4mI3hhOzwvc3ZnPg==;" vertex="1" parent="1">
          <mxGeometry x="750" y="570" width="109" height="53" as="geometry" />
        </mxCell>
        <mxCell id="Q-FP_CODCPaTkF4lISSn-36" value="MESSAGE CONSUMER" style="shape=image;verticalLabelPosition=bottom;labelBackgroundColor=#ffffff;verticalAlign=top;aspect=fixed;imageAspect=0;image=data:image/svg+xml,PHN2ZyB4bWxuczpjYz0iaHR0cDovL2NyZWF0aXZlY29tbW9ucy5vcmcvbnMjIiB4bWxuczpkYz0iaHR0cDovL3B1cmwub3JnL2RjL2VsZW1lbnRzLzEuMS8iIHhtbG5zOmlua3NjYXBlPSJodHRwOi8vd3d3Lmlua3NjYXBlLm9yZy9uYW1lc3BhY2VzL2lua3NjYXBlIiB4bWxuczpyZGY9Imh0dHA6Ly93d3cudzMub3JnLzE5OTkvMDIvMjItcmRmLXN5bnRheC1ucyMiIHhtbG5zOnNvZGlwb2RpPSJodHRwOi8vc29kaXBvZGkuc291cmNlZm9yZ2UubmV0L0RURC9zb2RpcG9kaS0wLmR0ZCIgeG1sbnM6c3ZnPSJodHRwOi8vd3d3LnczLm9yZy8yMDAwL3N2ZyIgeG1sbnM9Imh0dHA6Ly93d3cudzMub3JnLzIwMDAvc3ZnIiB4bWxuczp4bGluaz0iaHR0cDovL3d3dy53My5vcmcvMTk5OS94bGluayIgdmVyc2lvbj0iMS4xIiBpZD0ic3ZnMTE5NDciIGlua3NjYXBlOnZlcnNpb249IjAuOTIuMyAoMjQwNTU0NiwgMjAxOC0wMy0xMSkiIHNvZGlwb2RpOmRvY25hbWU9IndlYl9zZXJ2aWNlLnN2ZyIgeD0iMHB4IiB5PSIwcHgiIHZpZXdCb3g9IjAgMCAzOC45NCA0MC4yOSIgc3R5bGU9ImVuYWJsZS1iYWNrZ3JvdW5kOm5ldyAwIDAgMzguOTQgNDAuMjk7IiB4bWw6c3BhY2U9InByZXNlcnZlIj4mI3hhOzxzb2RpcG9kaTpuYW1lZHZpZXcgYm9yZGVyY29sb3I9IiM2NjY2NjYiIGJvcmRlcm9wYWNpdHk9IjEiIGZpdC1tYXJnaW4tYm90dG9tPSIwIiBmaXQtbWFyZ2luLWxlZnQ9IjAiIGZpdC1tYXJnaW4tcmlnaHQ9IjAiIGZpdC1tYXJnaW4tdG9wPSIwIiBncmlkdG9sZXJhbmNlPSIxMCIgZ3VpZGV0b2xlcmFuY2U9IjEwIiBpZD0ibmFtZWR2aWV3MTE5NDkiIGlua3NjYXBlOmN1cnJlbnQtbGF5ZXI9InN2ZzExOTQ3IiBpbmtzY2FwZTpjeD0iMTUuODMwODM5IiBpbmtzY2FwZTpjeT0iMTcuOTAzNzI4IiBpbmtzY2FwZTpwYWdlb3BhY2l0eT0iMCIgaW5rc2NhcGU6cGFnZXNoYWRvdz0iMiIgaW5rc2NhcGU6d2luZG93LWhlaWdodD0iMTAxNyIgaW5rc2NhcGU6d2luZG93LW1heGltaXplZD0iMSIgaW5rc2NhcGU6d2luZG93LXdpZHRoPSIxOTIwIiBpbmtzY2FwZTp3aW5kb3cteD0iLTgiIGlua3NjYXBlOndpbmRvdy15PSItOCIgaW5rc2NhcGU6em9vbT0iNy43Nzk5Nzk5IiBvYmplY3R0b2xlcmFuY2U9IjEwIiBwYWdlY29sb3I9IiNmZmZmZmYiIHNob3dncmlkPSJmYWxzZSI+JiN4YTsJPC9zb2RpcG9kaTpuYW1lZHZpZXc+JiN4YTs8ZyBpZD0iZzExOTQ1IiB0cmFuc2Zvcm09InRyYW5zbGF0ZSgtMS4zMTI3MTA0LC0wLjc0Nzg2MzA5KSI+JiN4YTsJPHRpdGxlIGlkPSJ0aXRsZTExODc1Ij5QYWdlLTE8L3RpdGxlPiYjeGE7CTxnIGlkPSJncm91cDQzNjEtMSIgdHJhbnNmb3JtPSJ0cmFuc2xhdGUoMS41LC0xLjUpIj4mI3hhOwkJPHRpdGxlIGlkPSJ0aXRsZTExODc3Ij5XZWIgU2VydmljZTwvdGl0bGU+JiN4YTsJCTxnIGlkPSJzaGFwZTQzNjItMiIgdHJhbnNmb3JtPSJ0cmFuc2xhdGUoNS4zNzk3NCwtOS4wNzcxNykiPiYjeGE7CQkJPHRpdGxlIGlkPSJ0aXRsZTExODc5Ij5wYXRoOTYxMDwvdGl0bGU+JiN4YTsJCQkmI3hhOwkJCQk8cGF0aCBpZD0icGF0aDExODgxIiBpbmtzY2FwZTpjb25uZWN0b3ItY3VydmF0dXJlPSIwIiBzdHlsZT0iZmlsbDojRkZGRkZGO3N0cm9rZTojNTU2QThBO3N0cm9rZS13aWR0aDowLjc1O3N0cm9rZS1taXRlcmxpbWl0OjM7IiBkPSIgICAgIE0zMC4wOSwyOS4zM2MwLDkuNzMtNy45LDE3LjYyLTE3LjYzLDE3LjYycy0xNy42Mi03LjktMTcuNjItMTcuNjNjMC05LjczLDcuODktMTcuNjIsMTcuNjItMTcuNjIgICAgIEMyMi4xOSwxMS43MSwzMC4wOCwxOS42LDMwLjA5LDI5LjMzeiIvPiYjeGE7CQk8L2c+JiN4YTsJCTxnIGlkPSJzaGFwZTQzNjMtNCIgdHJhbnNmb3JtPSJ0cmFuc2xhdGUoMC4yMTc0OTIsLTMuOTE0OTMpIj4mI3hhOwkJCTx0aXRsZSBpZD0idGl0bGUxMTg4NCI+cGF0aDk2MTI8L3RpdGxlPiYjeGE7CQkJPHBhdGggaWQ9InBhdGgxMTg4NiIgaW5rc2NhcGU6Y29ubmVjdG9yLWN1cnZhdHVyZT0iMCIgc3R5bGU9ImZpbGw6I0FDRThGOTsiIGQ9Ik0zNS4yNSwyNC4xNmMwLDkuNzMtNy44OSwxNy42Mi0xNy42MywxNy42MiAgICAgUzAsMzMuODksMCwyNC4xNmwwLDBIMzUuMjV6Ii8+JiN4YTsJCTwvZz4mI3hhOwkJPGcgaWQ9InNoYXBlNDM2NC02IiB0cmFuc2Zvcm09InRyYW5zbGF0ZSgxLjM0MjQ5LC04LjgxMikiPiYjeGE7CQkJPHRpdGxlIGlkPSJ0aXRsZTExODg5Ij5wYXRoOTYxNDwvdGl0bGU+JiN4YTsJCQk8cGF0aCBpZD0icGF0aDExODkxIiBpbmtzY2FwZTpjb25uZWN0b3ItY3VydmF0dXJlPSIwIiBzdHlsZT0iZmlsbDojNTU2QThBOyIgZD0iTTE2LjUsMTIuNTZjOS4xMSwwLDE2LjUsNy4zOSwxNi41LDE2LjUgICAgIHMtNy4zOSwxNi41LTE2LjUsMTYuNVMwLDM4LjE3LDAsMjkuMDZjMCwwLDAsMCwwLDBDMCwxOS45NSw3LjM5LDEyLjU2LDE2LjUsMTIuNTZ6IE0xNi41LDExLjA2Yy05Ljk0LDAtMTgsOC4wNi0xOCwxOCAgICAgczguMDYsMTgsMTgsMThzMTgtOC4wNiwxOC0xOFMyNi40NCwxMS4wNiwxNi41LDExLjA2eiIvPiYjeGE7CQk8L2c+JiN4YTsJCTxnIGlkPSJncm91cDQzNjUtOCIgdHJhbnNmb3JtPSJ0cmFuc2xhdGUoMCwtMy41Mzk5MykiPiYjeGE7CQkJPHRpdGxlIGlkPSJ0aXRsZTExODk0Ij5nOTYyMDwvdGl0bGU+JiN4YTsJCQk8ZyBpZD0ic2hhcGU0MzY2LTkiIHRyYW5zZm9ybT0idHJhbnNsYXRlKDkuNTkyNDkpIj4mI3hhOwkJCQk8dGl0bGUgaWQ9InRpdGxlMTE4OTYiPnBhdGg5NjE2PC90aXRsZT4mI3hhOwkJCQk8cGF0aCBpZD0icGF0aDExODk4IiBpbmtzY2FwZTpjb25uZWN0b3ItY3VydmF0dXJlPSIwIiBzdHlsZT0iZmlsbDojNTU2QThBOyIgZD0iTTcuODcsNy40OWMzLDAsNi4zOCw3LjAxLDYuMzgsMTYuNCAgICAgIGMwLDkuMzgtMy4zOCwxNi40LTYuMzgsMTYuNFMxLjUsMzMuMjgsMS41LDIzLjg5QzEuNSwxNC41MSw0Ljg3LDcuNDksNy44Nyw3LjQ5eiBNNy44Nyw1Ljk5QzMuNTIsNS45OSwwLDE0LDAsMjMuODkgICAgICBjMCw5Ljg4LDMuNTIsMTcuOSw3Ljg3LDE3LjlzNy44OC04LjAxLDcuODgtMTcuOUMxNS43NSwxNC4wMSwxMi4yMiw1Ljk5LDcuODcsNS45OXoiLz4mI3hhOwkJCTwvZz4mI3hhOwkJCTxnIGlkPSJzaGFwZTQzNjctMTEiIHRyYW5zZm9ybT0idHJhbnNsYXRlKDAsLTE4KSI+JiN4YTsJCQkJPHRpdGxlIGlkPSJ0aXRsZTExOTAxIj5saW5lOTYxODwvdGl0bGU+JiN4YTsJCQkJJiN4YTsJCQkJCTxwYXRoIGlkPSJwYXRoMTE5MDMiIGlua3NjYXBlOmNvbm5lY3Rvci1jdXJ2YXR1cmU9IjAiIHN0eWxlPSJmaWxsOm5vbmU7c3Ryb2tlOiM1NTZBOEE7c3Ryb2tlLXdpZHRoOjEuNTtzdHJva2UtbWl0ZXJsaW1pdDozOyIgZD0iICAgICAgTTAsNDEuNzloMzUuMDkiLz4mI3hhOwkJCTwvZz4mI3hhOwkJPC9nPiYjeGE7CQk8ZyBpZD0ic2hhcGU0MzY4LTE0IiB0cmFuc2Zvcm09InRyYW5zbGF0ZSg0LjM0OTk5LC0zMC41Mzk5KSI+JiN4YTsJCQk8dGl0bGUgaWQ9InRpdGxlMTE5MDciPnBhdGg5NjIyPC90aXRsZT4mI3hhOwkJCTxwYXRoIGlkPSJwYXRoMTE5MDkiIGlua3NjYXBlOmNvbm5lY3Rvci1jdXJ2YXR1cmU9IjAiIHN0eWxlPSJmaWxsOm5vbmU7IiBkPSJNMCwzOS43NmMzLjI5LDEuMjgsOC4xMiwyLjAzLDEzLjQ5LDIuMDMgICAgIHMxMC4yLTAuNzUsMTMuNS0yLjAzSDB6Ii8+JiN4YTsJCQkmI3hhOwkJCQk8cGF0aCBpZD0icGF0aDExOTExIiBpbmtzY2FwZTpjb25uZWN0b3ItY3VydmF0dXJlPSIwIiBzdHlsZT0iZmlsbDpub25lO3N0cm9rZTojNTU2QThBO3N0cm9rZS13aWR0aDoxLjU7c3Ryb2tlLW1pdGVybGltaXQ6MzsiIGQ9IiAgICAgTTAsMzkuNzZjMy4yOSwxLjI4LDguMTIsMi4wMywxMy40OSwyLjAzczEwLjItMC43NSwxMy41LTIuMDMiLz4mI3hhOwkJPC9nPiYjeGE7CQk8ZyBpZD0ic2hhcGU0MzY5LTE3IiB0cmFuc2Zvcm09InRyYW5zbGF0ZSg0LjM0OTk5LC0xMC41MDc0KSI+JiN4YTsJCQk8dGl0bGUgaWQ9InRpdGxlMTE5MTQiPnBhdGg5NjI0PC90aXRsZT4mI3hhOwkJCTxwYXRoIGlkPSJwYXRoMTE5MTYiIGlua3NjYXBlOmNvbm5lY3Rvci1jdXJ2YXR1cmU9IjAiIHN0eWxlPSJmaWxsOm5vbmU7IiBkPSJNMCw0MS43OWMzLjI5LTEuMjgsOC4xMi0yLjAzLDEzLjQ5LTIuMDMgICAgIHMxMC4yLDAuNzUsMTMuNSwyLjAzSDB6Ii8+JiN4YTsJCQkmI3hhOwkJCQk8cGF0aCBpZD0icGF0aDExOTE4IiBpbmtzY2FwZTpjb25uZWN0b3ItY3VydmF0dXJlPSIwIiBzdHlsZT0iZmlsbDpub25lO3N0cm9rZTojNTU2QThBO3N0cm9rZS13aWR0aDoxLjU7c3Ryb2tlLW1pdGVybGltaXQ6MzsiIGQ9IiAgICAgTTAsNDEuNzljMy4yOS0xLjI4LDguMTItMi4wMywxMy40OS0yLjAzczEwLjIsMC43NSwxMy41LDIuMDMiLz4mI3hhOwkJPC9nPiYjeGE7CQk8ZyBpZD0iZ3JvdXA0MzcwLTIwIiB0cmFuc2Zvcm09InRyYW5zbGF0ZSgxNS42NjkzKSI+JiN4YTsJCQk8dGl0bGUgaWQ9InRpdGxlMTE5MjEiPkNvbmZpZ3VyYXRpb248L3RpdGxlPiYjeGE7CQkJPGcgaWQ9InNoYXBlNDM3MS0yMSI+JiN4YTsJCQkJPHRpdGxlIGlkPSJ0aXRsZTExOTIzIj5wYXRoMTk0NC4yNzM2NzwvdGl0bGU+JiN4YTsJCQkJPHBhdGggaWQ9InBhdGgxMTkyNSIgaW5rc2NhcGU6Y29ubmVjdG9yLWN1cnZhdHVyZT0iMCIgc3R5bGU9ImZpbGw6I0ZGRkZGRjsiIGQ9Ik0yMi4yNywyOS4wM2MwLTAuMTctMC4yOS0wLjUzLTAuODItMC41NyAgICAgIGwtMi4wNC0wLjEyYy0wLjQ2LDAuMDItMC44Ny0wLjI4LTAuOTgtMC43M2MwLDAuMDEtMC45My0xLjc0LTAuNC0yLjM3bDEuMDktMS40N2MwLjE3LTAuMzMsMC4xMi0wLjczLTAuMTEtMS4wMmwtMS4zLTEuMDkgICAgICBjLTAuMjQtMC4yLTAuNi0wLjE4LTAuODEsMC4wNmMtMC4wMSwwLjAxLTAuMDIsMC4wMi0wLjAyLDAuMDNjMCwwLDAsMCwwLDAuMDNsLTEuNDIsMS4yOWMtMC4zNCwwLjM5LTAuOTEsMC40OS0xLjM3LDAuMjYgICAgICBjLTAuMzUsMC0wLjY3LTAuMi0xLTAuMjJjLTAuNDQtMC4yMy0wLjc4LTAuNjMtMC45My0xLjFsLTAuMjMtMS44OGMtMC4wNy0wLjQtMC40MS0wLjctMC44MS0wLjcxbC0xLjU1LDAuMjUgICAgICBjLTAuMzYsMC4wMi0wLjY2LDAuMjktMC43MSwwLjY1bDAuMDYsMi4wMWMwLDAuNS0wLjA3LDEuMzUtMS42MSwxLjYyYzAsMC0xLjE0LDAuMi0xLjU0LTAuMDhsLTEuNi0xLjI5ICAgICAgYy0wLjI4LTAuMTQtMC42Mi0wLjA5LTAuODUsMC4xM0wzLjIsMjIuODVsLTAuOTcsMS4xNGMtMC4yLDAuMjUtMC4xNiwwLjYxLDAuMDksMC44YzAuMDEsMC4wMSwwLjAyLDAuMDIsMC4wMywwLjAzbDEuMjcsMS41OSAgICAgIGMwLjczLDAuNzIsMC4wNiwxLjg3LDAuMDQsMi4yMWMtMC4xMiwwLjUyLTAuNTUsMC45LTEuMDgsMC45NmwtMi4wMiwwLjI1QzAuMjQsMjkuOTcsMC4wMSwzMC4yOSwwLDMwLjY1bDAuMDYsMS43MiAgICAgIGMwLjE2LDAuMzEsMC40NiwwLjUzLDAuODEsMC41N2wyLjA0LDAuMTFjMC42NywwLjAzLDEuMTQsMC4yMSwxLjYsMS42MmMwLjE4LDAuMzQsMC4zLDAuNzEtMC4yNCwxLjM0bC0xLjExLDEuNjQgICAgICBjLTAuMTQsMC4yOS0wLjA5LDAuNjMsMC4xMiwwLjg2bDEuMjksMS4wN2MwLjI1LDAuMTgsMC41OCwwLjIsMC44NCwwLjA1bDEuNDQtMS40NWMwLjUzLTAuNDgsMS45OSwwLDIuMzcsMC4xNCAgICAgIGMwLjQ3LDAuMDUsMC44NSwwLjQxLDAuOTMsMC44OGwwLjI2LDIuMDJjMC4xNCwwLjMzLDAuNDUsMC41NSwwLjgxLDAuNTdsMS41NC0wLjA4YzAuMzYtMC4wMiwwLjY2LTAuMjksMC43MS0wLjY1bC0wLjA1LTIuMDMgICAgICBjMC0wLjQ5LDIuMzYtMi4wMSwzLjE0LTEuNTFsMC44OCwwLjUybDAuOTksMC41OGMwLjI5LDAuMTQsMC4zOCwwLjA5LDAuNjItMC4xMmwxLjA4LTEuMTRjMC4yMy0wLjMyLDAuMTgtMC43Ny0wLjExLTEuMDMgICAgICBsLTEuMjktMS4zOWMtMC4zOS0wLjMzLTAuMTktMS41My0wLjA2LTIuMzVjMC4xNS0wLjQ2LDAuNTctMC43OCwxLjA2LTAuNzlsMi4wNi0wLjRDMjIuNiwzMS4xMSwyMi4yNywyOS4wMywyMi4yNywyOS4wM3ogICAgICAgTTguNzUsMzMuODdjLTAuMDktMC4wOC0wLjE5LTAuMTYtMC4yOC0wLjI0Yy0xLjYyLTEuNDEtMS44LTMuODYtMC40LTUuNDljMCwwLDAsMCwwLjAzLTAuMDRjMS40My0xLjcxLDMuOTctMS45Niw1LjcxLTAuNTcgICAgICBsMC4wOCwwLjA3YzEuNjUsMS40OSwxLjgxLDQuMDIsMC4zNiw1LjcxYy0wLjIsMC4yNC0wLjQzLDAuNDUtMC42OCwwLjY0QzEyLjEzLDM1LjAyLDEwLjE1LDM0Ljk5LDguNzUsMzMuODd6Ii8+JiN4YTsJCQk8L2c+JiN4YTsJCQk8ZyBpZD0ic2hhcGU0MzcyLTIzIiB0cmFuc2Zvcm09InRyYW5zbGF0ZSgzLjE5NzM1LC0zLjAyMDM1KSI+JiN4YTsJCQkJPHRpdGxlIGlkPSJ0aXRsZTExOTI4Ij5wYXRoMTk0Ni4yNzM2ODwvdGl0bGU+JiN4YTsJCQkJPHBhdGggaWQ9InBhdGgxMTkzMCIgaW5rc2NhcGU6Y29ubmVjdG9yLWN1cnZhdHVyZT0iMCIgc3R5bGU9ImZpbGw6I0U1RTVFNTsiIGQ9Ik0xOC42LDM0LjRsLTIuMDcsMC40ICAgICAgYy0wLjQ4LDAuMDItMC45LDAuMzMtMS4wNSwwLjc5Yy0wLjEzLDAuODItMC4zNCwyLjAyLDAuMDYsMi4zNWwxLjI1LDEuNDJjMC4zLDAuMjYsMC4zNSwwLjcxLDAuMTEsMS4wM2wtMS4wOCwxLjE0ICAgICAgYy0wLjIzLDAuMjEtMC4zMywwLjI2LTAuNjIsMC4xMmwtMC45OC0wLjU3bC0zLjg3LTQuMTNjMC4yNy0wLjE4LDAuNTItMC40LDAuNzMtMC42NWMxLjQ1LTEuNjksMS4yOS00LjIyLTAuMzYtNS43MWwtMC4wOS0wLjA1ICAgICAgYy0xLjc0LTEuMzktNC4yOC0xLjE0LTUuNzEsMC41N2MwLDAsMCwwLTAuMDMsMC4wNEwwLDI1Ljg1bDAuMTItMC4xNGMwLjIzLTAuMjIsMC41Ny0wLjI3LDAuODUtMC4xM2wxLjYsMS4yOSAgICAgIGMwLjM5LDAuMjksMS41NCwwLjA4LDEuNTQsMC4wOGMxLjU0LTAuMjcsMS42Mi0xLjE0LDEuNjItMS42MmwtMC4wNy0yLjAyYzAuMDUtMC4zNiwwLjM1LTAuNjMsMC43MS0wLjY1bDEuNTUtMC4yNCAgICAgIGMwLjQsMC4wMiwwLjc0LDAuMzIsMC44MSwwLjcxbDAuMjMsMS44OGMwLjE1LDAuNDcsMC40OSwwLjg3LDAuOTMsMS4xYzAuMzMsMCwwLjY1LDAuMiwxLDAuMjJjMC40NiwwLjIzLDEuMDMsMC4xMywxLjM3LTAuMjYgICAgICBsMS40My0xLjI0YzAsMCwwLDAsMC0wLjA0YzAuMTktMC4yNSwwLjU1LTAuMywwLjgtMC4xMWMwLjAxLDAuMDEsMC4wMiwwLjAxLDAuMDMsMC4wMmwxLjI5LDEuMWMwLjI0LDAuMjksMC4yOCwwLjY4LDAuMTEsMS4wMiAgICAgIGwtMS4wNiwxLjQzYy0wLjUzLDAuNjQsMC40LDIuMzgsMC40LDIuMzhjMC4xMSwwLjQ0LDAuNSwwLjc0LDAuOTUsMC43M2wyLDAuMTRjMC41MywwLDAuODMsMC4zNywwLjgzLDAuNTcgICAgICBDMTkuMDcsMzIuMDYsMTkuNCwzNC4xMywxOC42LDM0LjR6Ii8+JiN4YTsJCQk8L2c+JiN4YTsJCQk8ZyBpZD0ic2hhcGU0MzczLTI1Ij4mI3hhOwkJCQk8dGl0bGUgaWQ9InRpdGxlMTE5MzMiPnBhdGgxOTQ4LjI3MzY5PC90aXRsZT4mI3hhOwkJCQkmI3hhOwkJCQkJPHBhdGggaWQ9InBhdGgxMTkzNSIgaW5rc2NhcGU6Y29ubmVjdG9yLWN1cnZhdHVyZT0iMCIgc3R5bGU9ImZpbGw6bm9uZTtzdHJva2U6IzU1NkE4QTtzdHJva2Utd2lkdGg6MS41O3N0cm9rZS1taXRlcmxpbWl0OjM7IiBkPSIgICAgICBNMTguNDMsMzguNjJjMC4yOSwwLjEzLDAuMzgsMC4wOSwwLjYyLTAuMTJsMS4wOC0xLjE1YzAuMjMtMC4zMiwwLjE4LTAuNzctMC4xMS0xLjAzbC0xLjI4LTEuMzhjLTAuNC0wLjMzLTAuMTktMS41My0wLjA2LTIuMzUgICAgICBjMC4xNS0wLjQ2LDAuNTctMC43NywxLjA1LTAuNzlsMi4wNi0wLjRjMC44MS0wLjI2LDAuNDctMi4zNSwwLjQ3LTIuMzVjMC0wLjE3LTAuMy0wLjUzLTAuODItMC41N2wtMi4wMy0wLjEzICAgICAgYy0wLjQ1LDAtMS45MS0yLjQ3LTEuMzgtMy4xMWwxLjEtMS40NmMwLjE3LTAuMzMsMC4xMy0wLjczLTAuMTEtMS4wMmwtMS4zLTEuMWMtMC4yNC0wLjItMC42LTAuMTgtMC44MSwwLjA2ICAgICAgYy0wLjAxLDAuMDEtMC4wMiwwLjAyLTAuMDIsMC4wM2wwLDAuMDRsLTEuNDIsMS4yOGMtMC4zNSwwLjM5LTMuMTQtMC41Ny0zLjMtMS4wNmwtMC4yMy0xLjg4Yy0wLjA3LTAuNC0wLjQxLTAuNy0wLjgxLTAuNzIgICAgICBsLTEuNTQsMC4yNmMtMC4zNiwwLjAyLTAuNjYsMC4yOS0wLjcxLDAuNjRsMC4wNiwyLjAyYzAsMC41LTAuMDgsMS4zNC0xLjYyLDEuNjJjMCwwLTEuMTQsMC4yLTEuNTUtMC4wOWwtMS42LTEuMjggICAgICBjLTAuMjgtMC4xNC0wLjYyLTAuMDktMC44NiwwLjEzTDIuMjMsMjRjLTAuMTksMC4yNS0wLjE1LDAuNjEsMC4xLDAuOGMwLjAxLDAuMDEsMC4wMiwwLjAxLDAuMDMsMC4wMmwxLjI3LDEuNTkgICAgICBjMC43MywwLjcyLDAuMDYsMS44OCwwLjA0LDIuMjFjLTAuMTIsMC41Mi0wLjU1LDAuOS0xLjA4LDAuOTZsLTIuMDIsMC4yNUMwLjI0LDI5Ljk3LDAuMDIsMzAuMjksMCwzMC42NWwwLjA2LDEuNzEgICAgICBjMC4xNiwwLjMxLDAuNDYsMC41MywwLjgxLDAuNTdsMi4wMywwLjExYzAuNjcsMC4wNCwxLjE0LDAuMjEsMS42LDEuNjJjMC4xOCwwLjM0LDAuMzEsMC43MS0wLjI0LDEuMzVsLTEuMTEsMS42MyAgICAgIGMtMC4xNCwwLjI4LTAuMDksMC42MiwwLjEzLDAuODZsMS4yOSwxLjA3YzAuMjUsMC4xOCwwLjU4LDAuMiwwLjg1LDAuMDVsMS40My0xLjQ0YzAuNTMtMC40OCwzLjIzLDAuNTcsMy4zMSwxLjAybDAuMjUsMi4wMiAgICAgIGMwLjE0LDAuMzMsMC40NiwwLjU2LDAuODIsMC41N2wxLjUzLTAuMDljMC4zNi0wLjAyLDAuNjYtMC4yOSwwLjcxLTAuNjRsLTAuMDUtMi4wM2MwLTAuNDksMi4zNi0yLjAxLDMuMTQtMS41MUwxOC40MywzOC42MnoiLz4mI3hhOwkJCTwvZz4mI3hhOwkJCTxnIGlkPSJzaGFwZTQzNzQtMjciIHRyYW5zZm9ybT0idHJhbnNsYXRlKDcuMTM2OTQsLTcuMDQ1NTkpIj4mI3hhOwkJCQk8dGl0bGUgaWQ9InRpdGxlMTE5MzgiPmNpcmNsZTE5NTAuMjczNzA8L3RpdGxlPiYjeGE7CQkJCSYjeGE7CQkJCQk8Y2lyY2xlIGlkPSJlbGxpcHNlMTE5NDAiIHN0eWxlPSJmaWxsOm5vbmU7c3Ryb2tlOiM1NTZBOEE7c3Ryb2tlLXdpZHRoOjEuNTtzdHJva2UtbWl0ZXJsaW1pdDozOyIgY3g9IjQuMDUiIGN5PSIzNy43NCIgcj0iNC4wNSIvPiYjeGE7CQkJPC9nPiYjeGE7CQk8L2c+JiN4YTsJPC9nPiYjeGE7PC9nPiYjeGE7PC9zdmc+;" vertex="1" parent="1">
          <mxGeometry x="970" y="680" width="87.75" height="90" as="geometry" />
        </mxCell>
        <mxCell id="Q-FP_CODCPaTkF4lISSn-40" value="&lt;font style=&quot;font-size: 20px;&quot;&gt;BASIC APPLICATION ARCHITECTURE&lt;/font&gt;" style="text;strokeColor=none;align=center;fillColor=none;html=1;verticalAlign=middle;whiteSpace=wrap;rounded=0;fontStyle=1" vertex="1" parent="1">
          <mxGeometry x="224" y="20" width="380" height="60" as="geometry" />
        </mxCell>
      </root>
    </mxGraphModel>
  </diagram>
</mxfile>
